<?xml version="1.0" encoding="utf-8"?>
<svg viewBox="0 0 500 500" xmlns="http://www.w3.org/2000/svg" xmlns:xlink="http://www.w3.org/1999/xlink">
  <defs>
    <linearGradient id="a5312bde-8c7e-4767-9e17-08a43f21bf92" x1="889.13" y1="701.85" x2="889.13" y2="363.3" gradientUnits="userSpaceOnUse" gradientTransform="matrix(0.409863, 0, 0, 0.409863, -2.130203, 48.297333)">
      <stop offset="0" stop-color="gray" stop-opacity="0.25"/>
      <stop offset="0.54" stop-color="gray" stop-opacity="0.12"/>
      <stop offset="1" stop-color="gray" stop-opacity="0.1"/>
    </linearGradient>
    <linearGradient id="016d359d-0d48-4404-968f-1612e9b5c7a7" x1="376.53" y1="777.06" x2="376.53" y2="381.85" xlink:href="#a5312bde-8c7e-4767-9e17-08a43f21bf92"/>
  </defs>
  <title>static_assets</title>
  <ellipse cx="366.603" cy="323.024" rx="86.629" ry="16.837" fill="#6cb5fd" opacity="0.1" style=""/>
  <g opacity="0.5" transform="matrix(0.409863, 0, 0, 0.409863, 32.704044, 83.164337)" style="">
    <path d="M718.61,188.63c-2.85.81-6.34,2.92-8.06,8.69-3.37,11.31,4.46,19,1.88,30.79a23,23,0,0,1-4,8.64c-3.15,4.27-6.57,6.29-9.89,9.28a29.5,29.5,0,0,0-8.69,14.27,39.5,39.5,0,0,0-.39,18.55c1.18,5.12,3.19,8.85,4.95,13a96,96,0,0,1,5.11,16.37,39.87,39.87,0,0,1,1.12,8.32,73.21,73.21,0,0,1-1,11.12l-4.79,33.42a100.43,100.43,0,0,0-1.31,13.21,65.61,65.61,0,0,0,1.53,13.19c1.68,8.84,3.49,18,7.34,22.68s10.41,3,14.44-6.47c3.83-9.06,3.92-21.15,7.3-30.83,5.33-15.25,15.92-17.3,21.8-31.85,5.64-14,3.91-31.08,6.77-47,2-11.41,6.41-21.81,9-33.08,3.72-16.23,3.35-33.08.38-45.56a60.55,60.55,0,0,0-14.18-27.54c-2.49-2.75-5.16-5.2-8.29-5.45-3.33-.26-6.24,3.93-9.53,5.19C726.3,189.06,722.48,187.53,718.61,188.63Z" transform="translate(-84.99 -85.07)" fill="#6cb5fd"/>
    <path d="M736.64,183.23S731,327.57,707.28,412.68" transform="translate(-84.99 -85.07)" fill="none" stroke="#fff" stroke-miterlimit="10" stroke-width="2"/>
    <path d="M710.41,198s25.35,23.08,20.54,67" transform="translate(-84.99 -85.07)" fill="none" stroke="#fff" stroke-miterlimit="10" stroke-width="2"/>
    <path d="M689.14,263.68s41.61,8.37,38.52,33.26" transform="translate(-84.99 -85.07)" fill="none" stroke="#fff" stroke-miterlimit="10" stroke-width="2"/>
    <path d="M762.17,215.07s-16.84,14.74-31.84,56.49" transform="translate(-84.99 -85.07)" fill="none" stroke="#fff" stroke-miterlimit="10" stroke-width="2"/>
    <path d="M745.72,341.25s-11.49,9-20.71-22.51" transform="translate(-84.99 -85.07)" fill="none" stroke="#fff" stroke-miterlimit="10" stroke-width="2"/>
    <path d="M696.14,359.66s23.43-3.06,25.59-17.73" transform="translate(-84.99 -85.07)" fill="none" stroke="#fff" stroke-miterlimit="10" stroke-width="2"/>
  </g>
  <path d="M 315.616 85.931 C 313.239 86.283 310.378 87.386 309.201 90.783 C 306.894 97.448 313.907 102.493 312.292 109.457 C 311.81 111.373 310.796 113.114 309.366 114.478 C 306.906 116.9 304.095 117.958 301.431 119.601 C 298.767 121.245 296 123.831 294.75 127.798 C 293.549 131.614 294.07 135.827 295.32 138.975 C 296.57 142.123 298.459 144.471 300.148 147.062 C 302.2 150.25 303.915 153.643 305.267 157.185 C 305.949 158.8 306.407 160.5 306.628 162.239 C 306.845 164.37 306.57 166.661 306.296 168.903 L 303.857 188.88 C 303.533 191.536 303.205 194.233 303.39 196.79 C 303.599 199.737 304.472 202.311 305.333 204.824 C 307.185 210.242 309.169 215.89 312.665 218.874 C 316.161 221.858 321.645 221.218 324.6 215.668 C 327.412 210.385 326.896 203.094 329.293 197.418 C 333.072 188.47 341.958 187.745 346.233 179.252 C 350.331 171.104 348.04 160.682 349.688 151.213 C 350.869 144.431 354.065 138.364 355.705 131.688 C 358.07 122.068 356.934 111.883 353.811 104.227 C 350.688 96.571 345.749 91.111 340.449 86.918 C 338.204 85.136 335.822 83.525 333.154 83.23 C 330.318 82.914 328.051 85.3 325.326 85.902 C 322.153 86.562 318.842 85.451 315.616 85.931 Z" fill="#6cb5fd" style=""/>
  <path d="M 330.65 83.545 C 330.65 83.545 332.888 170.391 316.895 220.612" fill="none" stroke="#fff" stroke-miterlimit="10" stroke-width="2" style=""/>
  <path d="M 309.111 91.202 C 309.111 91.202 331.736 106.367 329.797 132.663" fill="none" stroke="#fff" stroke-miterlimit="10" stroke-width="2" style=""/>
  <path d="M 294.262 129.799 C 294.262 129.799 329.97 136.873 328.56 151.743" fill="none" stroke="#fff" stroke-miterlimit="10" stroke-width="2" style=""/>
  <path d="M 353.852 104.005 C 353.852 104.005 340.281 112.084 329.592 136.553" fill="none" stroke="#fff" stroke-miterlimit="10" stroke-width="2" style=""/>
  <path d="M 346.02 179.367 C 346.02 179.367 336.716 184.285 327.359 164.772" fill="none" stroke="#fff" stroke-miterlimit="10" stroke-width="2" style=""/>
  <path d="M 304.857 188.06 C 304.857 188.06 324.584 187.351 325.707 178.601" fill="none" stroke="#fff" stroke-miterlimit="10" stroke-width="2" style=""/>
  <path d="M 60.268 320.307 C 60.268 320.307 63.702 324.815 58.682 331.578 C 53.66 338.34 49.512 344.087 51.197 348.317 C 51.197 348.317 58.771 335.722 64.936 335.545 C 71.1 335.369 67.05 327.881 60.268 320.307 Z" fill="#6cb5fd" style=""/>
  <path d="M 60.268 320.307 C 60.574 320.74 60.817 321.214 60.989 321.717 C 67.005 328.783 70.206 335.377 64.427 335.545 C 59.042 335.701 52.583 345.329 51.033 347.763 C 51.084 347.951 51.146 348.135 51.218 348.317 C 51.218 348.317 58.792 335.722 64.956 335.545 C 71.121 335.369 67.05 327.881 60.268 320.307 Z" opacity="0.1" style=""/>
  <path d="M 66.653 326.032 C 66.653 327.614 66.477 328.901 66.243 328.901 C 66.01 328.901 65.834 327.619 65.834 326.032 C 65.834 324.446 66.055 325.213 66.272 325.213 C 66.489 325.213 66.653 324.45 66.653 326.032 Z" fill="#ffd037" style=""/>
  <path d="M 68.846 327.917 C 67.456 328.676 66.247 329.147 66.145 328.938 C 66.042 328.729 67.079 327.975 68.469 327.221 C 69.858 326.467 69.309 327.016 69.416 327.221 C 69.522 327.426 70.231 327.16 68.846 327.917 Z" fill="#ffd037" style=""/>
  <path d="M 42.135 320.307 C 42.135 320.307 38.7 324.815 43.722 331.578 C 48.742 338.34 52.882 344.083 51.205 348.313 C 51.205 348.313 43.631 335.717 37.467 335.541 C 31.302 335.365 35.344 327.881 42.135 320.307 Z" fill="#6cb5fd" style=""/>
  <path d="M 42.135 320.307 C 41.836 320.741 41.6 321.216 41.434 321.717 C 35.418 328.783 32.217 335.377 37.996 335.545 C 43.381 335.701 49.84 345.329 51.39 347.763 C 51.339 347.951 51.277 348.135 51.205 348.317 C 51.205 348.317 43.631 335.722 37.467 335.545 C 31.302 335.369 35.344 327.881 42.135 320.307 Z" opacity="0.1" style=""/>
  <path d="M 35.741 326.032 C 35.741 327.614 35.917 328.901 36.151 328.901 C 36.385 328.901 36.561 327.619 36.561 326.032 C 36.561 324.446 36.34 325.213 36.122 325.213 C 35.905 325.213 35.741 324.45 35.741 326.032 Z" fill="#ffd037" style=""/>
  <path d="M 33.549 327.917 C 34.938 328.676 36.147 329.147 36.25 328.938 C 36.352 328.729 35.315 327.975 33.926 327.221 C 32.536 326.467 33.086 327.016 32.979 327.221 C 32.872 327.426 32.163 327.16 33.549 327.917 Z" fill="#ffd037" style=""/>
  <path d="M 36.836 347.726 C 36.836 347.726 46.439 347.431 49.332 345.37 C 52.226 343.308 64.088 340.861 64.821 344.14 C 65.555 347.419 79.252 360.58 68.412 360.666 C 57.571 360.752 43.221 358.977 40.332 357.219 C 37.442 355.46 36.836 347.726 36.836 347.726 Z" fill="#fff" style=""/>
  <path d="M 68.604 359.526 C 57.763 359.613 43.414 357.838 40.524 356.079 C 38.324 354.739 37.447 349.931 37.155 347.714 L 36.836 347.714 C 36.836 347.714 37.442 355.46 40.332 357.219 C 43.221 358.977 57.571 360.756 68.412 360.666 C 71.543 360.641 72.621 359.526 72.563 357.879 C 72.129 358.887 70.936 359.51 68.604 359.526 Z" opacity="0.2" style=""/>
  <path d="M 435.337 318.442 C 436.088 317.829 436.635 317.003 436.906 316.073 C 437.112 315.13 436.71 314.003 435.808 313.658 C 434.8 313.274 433.722 313.97 432.907 314.679 C 432.091 315.388 431.152 316.191 430.082 316.04 C 431.201 315.026 431.705 313.5 431.41 312.019 C 431.364 311.717 431.236 311.434 431.042 311.2 C 430.48 310.601 429.468 310.859 428.796 311.331 C 426.664 312.831 426.07 315.724 426.058 318.331 C 425.845 317.393 426.025 316.413 426.017 315.462 C 426.008 314.511 425.746 313.413 424.934 312.913 C 424.431 312.642 423.867 312.508 423.295 312.523 C 422.336 312.486 421.271 312.585 420.615 313.285 C 419.795 314.154 420.012 315.618 420.721 316.564 C 421.43 317.511 422.504 318.122 423.496 318.786 C 424.291 319.259 424.969 319.905 425.48 320.675 C 425.54 320.782 425.589 320.895 425.627 321.012 L 431.632 321.012 C 432.977 320.326 434.223 319.462 435.337 318.442 Z" fill="#6cb5fd" style=""/>
  <path d="M 92.843 280.029 C 105.885 296.613 100.819 320.839 92.532 340.238 C 89.757 346.735 86.617 353.608 87.79 360.572 C 89.22 369.089 96.807 375.327 104.807 378.606 C 119.357 384.622 136.777 383.188 150.142 374.872 C 161.696 367.682 169.971 355.993 181.722 349.132 C 201.396 337.656 226.422 341.988 247.776 349.894 C 262.883 355.489 279.401 362.769 294.414 356.92 C 304.976 352.821 312.28 342.792 316.26 332.176 C 318.182 327.049 319.576 321.52 323.227 317.421 C 325.408 315.007 328.252 313.29 331.17 311.847 C 357.811 298.645 391.42 305.699 417.274 291.075 C 434.739 281.189 445.919 262.537 450.883 243.088 C 455.846 223.641 455.257 203.246 453.998 183.22 C 453.104 168.985 451.502 153.792 442.407 142.803 C 432.788 131.184 416.274 126.859 401.351 129.069 C 386.428 131.278 372.894 139.188 361.008 148.459 C 346.135 160.046 332.342 174.477 314.079 179.174 C 301.644 182.371 288.561 180.621 275.732 180.019 C 254.288 179.006 232.84 181.248 211.515 183.708 C 191.1 186.068 170.529 188.667 151.089 195.307 C 137.326 200.008 126.292 208.537 113.295 214.497 C 104.824 218.382 95.585 219.456 87.568 224.403 C 77.687 230.497 68.633 241.101 71.174 253.503 C 73.559 265.311 85.917 271.23 92.843 280.029 Z" fill="#6cb5fd" opacity="0.1" style=""/>
  <ellipse cx="259.092" cy="263.184" rx="175.286" ry="16.837" fill="#6cb5fd" opacity="0.1" style=""/>
  <ellipse cx="124.374" cy="360.322" rx="86.629" ry="16.837" fill="#6cb5fd" opacity="0.1" style=""/>
  <path d="M 212.929 257.934 L 211.556 259.93 C 211.556 259.93 213.052 261.926 213.195 262.176 C 213.339 262.426 217.561 262.053 217.561 262.053 L 217.934 260.557 L 217.31 258.811 Z" fill="#e6e6f0" style=""/>
  <polygon points="166.766 256.811 164.02 257.307 165.766 260.68 167.639 261.676 169.385 262.921 169.885 261.553 168.635 258.93 166.766 256.811" fill="#fdc2cc" style=""/>
  <path d="M 211.683 224.37 C 211.683 224.37 226.283 227.862 229.024 231.748 C 229.024 231.748 231.521 233.871 229.024 237.735 C 226.528 241.601 223.036 250.339 223.036 250.339 C 223.036 250.339 220.54 258.823 219.544 259.446 C 218.548 260.069 212.806 260.569 212.306 258.216 C 212.306 258.216 215.548 253.101 215.548 250.728 C 215.548 248.355 220.913 237.129 220.913 237.129 C 220.913 237.129 208.687 235.756 204.818 236.629 C 200.949 237.502 206.568 222.997 211.683 224.37 Z" fill="#565171" style=""/>
  <path d="M 211.683 224.37 C 211.683 224.37 226.283 227.862 229.024 231.748 C 229.024 231.748 231.521 233.871 229.024 237.735 C 226.528 241.601 223.036 250.339 223.036 250.339 C 223.036 250.339 220.54 258.823 219.544 259.446 C 218.548 260.069 212.806 260.569 212.306 258.216 C 212.306 258.216 215.548 253.101 215.548 250.728 C 215.548 248.355 220.913 237.129 220.913 237.129 C 220.913 237.129 208.687 235.756 204.818 236.629 C 200.949 237.502 206.568 222.997 211.683 224.37 Z" opacity="0.1" style=""/>
  <path d="M 208.687 227.739 C 208.658 228.464 208.58 229.28 208.47 230.157 C 207.671 236.51 205.068 245.958 205.068 245.958 C 205.068 245.958 202.449 251.573 201.699 255.192 C 200.949 258.811 195.834 259.7 195.834 259.7 C 195.834 259.7 181.858 261.34 178.988 260.7 C 176.119 260.061 171.611 262.573 169.381 262.196 C 167.151 261.819 165.762 256.581 165.762 256.581 C 169.632 256.604 173.461 255.796 176.992 254.212 C 182.73 251.593 190.969 252.839 190.969 252.839 C 192.21 252.479 193.249 251.622 193.838 250.47 C 194.71 248.597 194.71 237.244 194.461 236.494 C 192.821 231.575 192.956 228.419 193.428 226.579 C 193.586 225.775 193.94 225.023 194.461 224.39 Z" fill="#565171" style=""/>
  <path d="M 208.687 227.739 C 208.658 228.464 208.58 229.28 208.47 230.157 C 207.215 230.255 203.699 230.35 201.092 228.739 C 198.633 227.231 195.055 226.718 193.444 226.559 C 193.602 225.755 193.957 225.003 194.477 224.37 Z" opacity="0.1" style=""/>
  <path d="M 210.413 226.177 C 209.83 227.817 208.937 229.739 208.937 229.739 C 208.937 229.739 204.322 230.362 201.076 228.366 C 197.83 226.37 192.592 226.12 192.592 226.12 C 193.44 225.6 194.014 224.017 194.371 222.632 C 194.57 221.849 194.726 221.056 194.838 220.255 C 194.838 220.255 210.183 223.374 210.822 223.874 C 211.06 224.071 210.806 225.062 210.413 226.177 Z" fill="#e6e6f0" style=""/>
  <path d="M 237.759 173.588 L 219.147 184.822 L 217.298 185.937 L 217.298 180.449 L 218.581 179.835 L 234.267 172.338 C 234.267 172.338 235.016 158.739 237.013 160.862 C 239.009 162.985 237.759 173.588 237.759 173.588 Z" fill="#fdc2cc" style=""/>
  <path d="M 219.147 184.822 L 217.298 185.937 L 217.298 180.449 L 218.581 179.835 C 218.666 181.507 218.855 183.173 219.147 184.822 Z" opacity="0.1" style=""/>
  <path d="M 204.822 186.83 L 218.171 179.097 C 218.171 179.097 218.421 186.585 219.917 187.704 C 219.917 187.704 214.429 189.343 212.306 192.819 Z" fill="#b45181" style=""/>
  <path d="M 204.822 186.83 L 218.171 179.097 C 218.171 179.097 218.421 186.585 219.917 187.704 C 219.917 187.704 214.429 189.343 212.306 192.819 Z" opacity="0.1" style=""/>
  <path d="M 237.639 193.425 C 237.639 193.425 231.291 196.192 227.086 197.208 C 226.139 197.494 225.15 197.608 224.163 197.544 C 221.295 197.045 224.913 193.446 224.913 193.446 L 226.422 193.212 L 234.52 191.95 C 234.52 191.95 235.394 179.474 236.89 180.474 C 238.386 181.474 237.639 193.425 237.639 193.425 Z" fill="#fdc2cc" style=""/>
  <path d="M 210.81 182.195 C 210.81 182.195 205.445 186.187 207.441 191.179 C 209.437 196.171 197.084 188.183 197.084 188.183 C 197.084 188.183 201.076 182.195 201.949 177.703 C 202.822 173.211 210.81 182.195 210.81 182.195 Z" fill="#fdc2cc" style=""/>
  <path d="M 210.413 226.177 C 208.092 225.304 205.667 224.738 203.199 224.497 C 199.592 224.087 196.288 223.395 194.374 222.632 C 194.574 221.849 194.729 221.056 194.842 220.255 C 194.842 220.255 210.187 223.374 210.827 223.874 C 211.06 224.071 210.806 225.062 210.413 226.177 Z" opacity="0.1" style=""/>
  <path d="M 227.082 197.208 C 226.135 197.494 225.146 197.608 224.159 197.544 C 221.29 197.045 224.91 193.446 224.91 193.446 L 226.418 193.212 C 227.049 194.184 227.693 195.7 227.082 197.208 Z" opacity="0.1" style=""/>
  <path d="M 202.076 184.441 C 202.076 184.441 197.211 184.318 195.465 186.314 C 193.719 188.31 194.092 193.692 194.092 193.692 C 194.092 193.692 193.727 204.467 196.461 210.496 C 196.551 210.691 196.561 210.913 196.49 211.115 C 196.461 211.189 196.461 211.144 196.461 211.144 C 196.461 211.144 194.715 219.005 192.969 220.378 C 191.223 221.751 196.711 223.374 203.215 224.12 C 209.72 224.866 212.322 226.739 212.322 226.739 C 212.322 226.739 213.445 225.51 213.552 222.747 C 213.658 219.984 211.818 199.913 211.818 199.913 C 211.818 199.913 218.68 201.659 222.799 199.54 C 222.799 199.54 224.672 200.54 226.418 197.794 C 228.164 195.048 225.188 192.057 225.188 192.057 C 225.188 192.057 222.442 194.803 214.831 191.183 C 207.22 187.564 204.441 184.318 202.076 184.441 Z" fill="#b45181" style=""/>
  <path d="M 164.77 257.061 L 163.274 257.061 L 163.274 259.184 L 164.77 262.553 C 164.77 262.553 166.766 262.926 166.893 262.926 C 167.02 262.926 168.639 262.553 168.639 262.553 L 169.14 261.68 C 169.14 261.68 163.647 259.553 164.77 257.061 Z" fill="#e6e6f0" style=""/>
  <path d="M 211.683 259.057 L 209.437 264.049 L 218.921 268.557 L 226.409 268.807 C 226.409 268.807 227.032 267.061 224.537 266.189 L 222.54 265.816 C 222.54 265.816 219.921 261.073 219.671 258.848 C 219.671 258.848 217.175 259.348 216.802 261.217 C 216.798 261.176 213.306 262.921 211.683 259.057 Z" fill="#b45181" style=""/>
  <path d="M 163.647 256.561 L 162.885 257.184 L 159.532 259.93 L 167.266 270.177 C 167.266 270.177 171.631 272.049 173.632 270.177 C 173.632 270.177 174.861 268.947 172.136 267.93 C 172.136 267.93 170.012 268.303 170.012 266.184 C 170.012 264.065 170.513 261.819 171.242 261.319 C 171.242 261.319 169.369 260.696 168.873 261.196 C 168.491 261.617 168.156 262.077 167.873 262.569 C 167.873 262.569 163.397 260.803 163.647 256.561 Z" fill="#b45181" style=""/>
  <path d="M 201.703 177.953 C 201.576 178.586 201.409 179.21 201.203 179.822 C 202.55 183.064 206.232 184.645 209.511 183.392 C 209.84 183.053 210.192 182.736 210.564 182.445 C 210.564 182.445 202.576 173.461 201.703 177.953 Z" opacity="0.1" style=""/>
  <path d="M 201.014 194.618 C 201.014 194.618 204.883 199.733 210.499 199.86" opacity="0.1" style=""/>
  <g opacity="0.1" transform="matrix(0.409863, 0, 0, 0.409863, 32.704044, 83.164337)" style="">
    <path d="M552.06,369.22a3.44,3.44,0,0,1-.56-.21q-.44.23-.9.43A5.69,5.69,0,0,0,552.06,369.22Z" transform="translate(-84.99 -85.07)"/>
    <path d="M555.3,352a15.06,15.06,0,0,0-1.06-1.22s-2,2-6.94,2.38A16.8,16.8,0,0,0,555.3,352Z" transform="translate(-84.99 -85.07)"/>
    <path d="M524.71,369.92l.06.65a60.46,60.46,0,0,0,12.18,1A63.38,63.38,0,0,1,524.71,369.92Z" transform="translate(-84.99 -85.07)"/>
    <path d="M503.71,429c-15.83-1.83-29.22-5.78-25-9.13s8.52-22.53,8.52-22.53,0,.11.07-.07a2,2,0,0,0-.07-1.51c-6.67-14.75-5.78-41-5.78-41s-.91-13.09,3.35-18c3.17-3.63,10.56-4.38,14.13-4.53a6.47,6.47,0,0,0-1,0s-11.87-.3-16.13,4.57-3.35,18-3.35,18-.89,26.29,5.78,41a2,2,0,0,1,.07,1.51c-.07.18-.07.07-.07.07S480,416.5,475.7,419.85s9.13,7.31,25,9.13,22.22,6.39,22.22,6.39a7.8,7.8,0,0,0,.84-1.23C520.67,432.65,514.31,430.2,503.71,429Z" transform="translate(-84.99 -85.07)"/>
  </g>
  <circle cx="207.441" cy="177.08" r="6.488" fill="#fdc2cc" style=""/>
  <path d="M 216.675 174.178 C 216.138 175.522 214.535 176.031 213.13 176.379 C 211.122 176.871 208.958 177.355 207.035 176.592 C 206.786 176.453 206.499 176.397 206.215 176.433 C 205.987 176.524 205.796 176.69 205.674 176.904 C 203.555 179.92 203.9 183.941 203.35 187.589 C 203.179 188.724 202.888 189.896 202.121 190.745 C 200.629 192.385 197.813 192.323 196.44 194.065 C 195.534 195.212 195.526 196.807 195.534 198.27 C 195.534 199.83 195.521 201.392 195.494 202.955 C 195.469 203.979 195.419 205.041 194.957 205.951 C 194.169 207.492 192.415 208.225 190.796 208.82 C 189.788 209.197 188.747 209.578 187.665 209.476 C 186.583 209.373 185.501 208.656 185.361 207.574 C 185.169 206.106 186.681 205.082 187.723 204.024 C 189.386 202.34 190.071 199.889 190.133 197.52 C 190.191 196.563 190.051 195.604 189.722 194.704 C 189.341 193.774 188.661 192.991 188.251 192.073 C 186.989 189.245 188.546 185.974 190.411 183.498 C 192.276 181.023 194.567 178.609 194.965 175.539 C 194.999 174.875 195.094 174.215 195.248 173.568 C 195.534 172.674 196.215 170.207 196.965 169.641 C 198.166 168.736 199.576 168.15 201.063 167.936 C 202.215 167.768 203.392 167.829 204.535 167.608 C 205.871 167.35 207.113 166.714 208.449 166.477 C 211.339 165.965 214.474 169.321 215.74 171.969 C 216.089 172.781 217.003 173.354 216.675 174.178 Z" opacity="0.1" style=""/>
  <path d="M 216.675 173.928 C 216.138 175.273 214.535 175.781 213.13 176.129 C 211.122 176.621 208.958 177.105 207.035 176.343 C 206.786 176.203 206.499 176.146 206.215 176.183 C 205.987 176.274 205.796 176.44 205.674 176.654 C 203.555 179.67 203.9 183.691 203.35 187.339 C 203.179 188.474 202.888 189.647 202.121 190.495 C 200.629 192.134 197.813 192.073 196.44 193.815 C 195.534 194.963 195.526 196.557 195.534 198.02 C 195.534 199.58 195.521 201.142 195.494 202.705 C 195.469 203.729 195.419 204.791 194.957 205.701 C 194.169 207.242 192.415 207.975 190.796 208.57 C 189.788 208.947 188.747 209.328 187.665 209.225 C 186.583 209.123 185.501 208.406 185.361 207.324 C 185.169 205.856 186.681 204.832 187.723 203.774 C 189.386 202.09 190.071 199.639 190.133 197.27 C 190.191 196.313 190.051 195.354 189.722 194.454 C 189.341 193.524 188.661 192.741 188.251 191.823 C 186.989 188.995 188.546 185.724 190.411 183.249 C 192.276 180.773 194.567 178.359 194.965 175.289 C 194.999 174.625 195.094 173.965 195.248 173.317 C 195.534 172.424 196.215 169.956 196.965 169.391 C 198.166 168.486 199.576 167.9 201.063 167.686 C 202.215 167.518 203.392 167.58 204.535 167.358 C 205.871 167.1 207.113 166.465 208.449 166.227 C 211.339 165.715 214.474 169.071 215.74 171.719 C 216.089 172.531 217.003 173.104 216.675 173.928 Z" fill="#f569bc" style=""/>
  <path d="M 237.639 161.456 L 345.503 161.456 L 345.503 269.311 L 237.639 269.311 Z" fill="#f7df1e" style=""/>
  <path d="M 266.006 251.589 L 274.261 246.593 C 275.855 249.417 277.302 251.806 280.778 251.806 C 284.11 251.806 286.209 250.503 286.209 245.437 L 286.209 210.971 L 296.344 210.971 L 296.344 245.576 C 296.344 256.073 290.197 260.852 281.212 260.852 C 273.105 260.852 268.4 256.651 266.01 251.585 M 301.849 250.499 L 310.099 245.72 C 312.272 249.269 315.095 251.868 320.092 251.868 C 324.293 251.868 326.969 249.769 326.969 246.871 C 326.969 243.396 324.219 242.166 319.592 240.137 L 317.059 239.052 C 309.747 235.941 304.894 232.03 304.894 223.776 C 304.894 216.173 310.686 210.382 319.735 210.382 C 326.178 210.382 330.801 212.627 334.142 218.488 L 326.252 223.559 C 324.514 220.444 322.633 219.214 319.735 219.214 C 316.768 219.214 314.882 221.095 314.882 223.559 C 314.882 226.6 316.764 227.829 321.108 229.706 L 323.641 230.793 C 332.249 234.481 337.109 238.248 337.109 246.72 C 337.109 255.843 329.941 260.839 320.305 260.839 C 310.878 260.839 304.812 256.331 301.861 250.486" style=""/>
  <path d="M 392.818 329.168 C 392.818 329.168 388.608 329.463 386.01 324.955 C 385.502 324.047 384.902 323.194 384.219 322.409 C 383.38 321.034 382.944 319.45 382.961 317.839 C 383.104 314.499 379.62 296.203 379.62 296.203 C 379.62 296.203 380.054 289.235 376.571 284.878 C 374.276 282.009 370.976 273.812 368.988 268.516 C 369.122 268.635 369.282 268.719 369.455 268.762 L 369.374 268.307 L 369.455 268.307 L 368.427 262.655 C 366.929 260.934 365.666 259.021 364.672 256.966 L 364.906 256.917 L 367.988 256.27 C 367.988 256.27 372.997 249.15 373.317 245.65 L 373.726 245.65 L 374.304 245.65 C 378.941 245.625 383.574 245.867 388.182 246.375 L 388.182 246.375 C 388.182 246.355 388.149 246.265 388.109 246.121 L 388.109 246.121 C 387.913 245.417 387.763 244.701 387.658 243.978 L 387.944 243.978 L 390.813 243.789 C 390.813 243.789 400.687 232.756 397.056 230.723 C 393.425 228.69 389.65 239.871 389.65 239.871 L 388.42 240.092 L 388.088 240.154 C 388.121 240.105 388.154 240.06 388.19 240.014 C 388.227 239.969 372.075 239.293 369.587 235.367 C 369.587 235.367 362.471 229.703 362.18 225.94 C 362.074 224.349 361.086 222.95 359.623 222.316 C 358.744 221.897 357.77 221.715 356.799 221.788 L 353.467 222.018 L 353.7 222.427 L 353.606 222.427 C 353.397 221.948 353.222 221.455 353.082 220.952 L 353.151 220.952 C 353.127 220.85 353.106 220.747 353.086 220.645 C 357.389 219.629 360.002 215.259 358.861 210.988 C 359.187 211.03 359.517 211.02 359.84 210.96 C 361.07 210.709 361.935 209.463 361.967 208.217 C 361.967 208.135 361.967 208.053 361.967 207.975 C 361.967 207.975 361.967 207.943 361.967 207.926 C 361.942 206.658 361.348 205.469 360.348 204.688 C 359.685 204.135 358.889 203.742 358.299 203.127 C 357.582 202.393 357.188 201.409 356.631 200.545 C 355.697 199.114 354.312 198.037 352.696 197.483 C 351.495 197.073 350.02 197.032 349.098 197.893 C 348.622 198.34 348.348 198.987 347.815 199.364 C 347.049 199.913 346.007 199.75 345.069 199.86 C 343.343 200.126 341.863 201.234 341.122 202.816 C 340.661 203.791 340.44 204.861 340.474 205.938 C 340.464 206.678 340.552 207.415 340.737 208.131 C 340.917 208.844 341.183 209.533 341.38 210.246 C 341.79 211.722 341.884 213.275 342.355 214.73 C 342.672 215.81 343.305 216.77 344.171 217.489 L 344.032 218.087 C 343.941 218.087 341.679 218.591 340.118 222.005 C 338.888 224.698 334.704 227.477 332.863 228.6 C 332.17 229.024 331.677 229.71 331.494 230.502 C 331.317 231.294 331.239 232.104 331.26 232.916 C 331.228 234.666 331.593 237.088 332.998 240.158 C 336.191 247.126 338.515 250.175 338.515 250.175 C 338.515 250.175 338.692 252.311 338.703 254.561 C 338.703 256.237 338.58 257.905 338.224 258.741 C 337.921 259.446 337.814 261.245 337.839 263.303 C 337.839 267.246 338.224 272.39 338.224 272.39 C 338.224 272.39 339.335 272.603 341.052 272.853 L 342.122 291.674 C 342.256 293.953 341.524 296.198 340.073 297.961 C 339.322 298.888 338.456 299.714 337.495 300.42 C 334.445 302.596 327.912 325.541 327.912 325.541 C 327.912 325.541 328.232 325.541 328.756 325.602 L 326.748 331.205 C 326.748 331.205 334.773 337.353 339.654 335.672 C 340.183 335.5 340.738 335.422 341.294 335.443 C 342.257 335.443 344.319 334.68 343.171 333.676 C 340.955 331.636 338.865 329.462 336.912 327.168 C 337.07 327.245 337.22 327.334 337.363 327.434 L 337.363 327.389 L 337.433 327.434 C 337.433 327.434 337.433 327.208 337.487 326.84 L 337.417 326.815 C 337.564 325.307 338.031 321.487 338.958 321.045 C 340.118 320.462 348.688 303.474 348.688 303.474 L 357.254 281.402 C 357.254 281.402 364.078 293.166 369.886 295.195 L 369.886 300.113 C 369.886 300.113 373.079 314.634 374.243 316.228 C 375.407 317.823 374.243 324.212 374.243 324.212 C 374.472 324.475 374.736 324.707 375.026 324.901 L 374.095 330.164 C 374.095 330.164 380.776 329.873 392.1 333.357 C 392.092 333.377 396.449 331.492 392.818 329.168 Z M 366.103 253.228 L 364.689 253.581 L 364.41 253.651 C 364.382 253.474 364.361 253.372 364.361 253.372 C 364.036 253.518 363.688 253.603 363.332 253.622 C 362.831 252.034 362.541 250.387 362.471 248.724 C 361.996 246.733 361.706 244.703 361.607 242.658 C 361.607 241.601 361.783 240.678 362.18 240.158 L 362.652 240.195 L 362.98 240.506 L 363.004 240.527 L 363.172 240.678 L 363.172 240.678 L 363.349 240.834 L 363.377 240.859 L 363.566 241.027 L 363.598 241.056 L 363.791 241.219 L 363.791 241.219 L 364.009 241.4 L 364.058 241.441 L 364.287 241.625 L 364.287 241.625 L 364.513 241.806 L 364.566 241.846 L 364.816 242.035 L 364.869 242.072 L 365.107 242.248 L 365.148 242.277 L 365.419 242.469 L 365.484 242.515 L 365.771 242.712 L 365.795 242.712 L 366.074 242.896 L 366.14 242.941 L 366.439 243.133 L 366.504 243.175 L 366.783 243.347 L 366.837 243.379 L 367.156 243.568 L 367.234 243.613 L 367.566 243.797 L 367.591 243.797 L 367.914 243.97 L 367.992 244.01 L 368.337 244.183 L 368.407 244.216 L 368.726 244.363 L 368.788 244.392 L 369.148 244.548 L 369.234 244.584 L 369.607 244.736 L 369.607 244.736 C 367.292 247.286 366.103 253.228 366.103 253.228 Z" fill="url(#a5312bde-8c7e-4767-9e17-08a43f21bf92)" style=""/>
  <path d="M 330.289 322.151 L 327.597 329.664 C 327.597 329.664 334.974 335.32 339.769 334.147 C 340.492 333.968 341.228 333.849 341.97 333.791 C 342.962 333.717 344.671 332.992 343.61 332.074 C 340.208 329.098 335.671 323.569 335.671 323.569 Z" fill="#4f4d59" style=""/>
  <path d="M 375.083 321.442 L 373.808 328.672 C 373.808 328.672 380.329 328.389 391.387 331.791 C 391.387 331.791 395.642 329.946 392.097 327.693 C 392.097 327.693 387.998 327.975 385.436 323.594 C 382.874 319.212 381.338 319.765 381.338 319.765 Z" fill="#4f4d59" style=""/>
  <path d="M 341.335 268.996 L 342.565 290.997 C 342.699 293.342 341.922 295.647 340.396 297.432 C 339.707 298.252 338.921 298.985 338.056 299.617 C 335.08 301.744 328.699 324.139 328.699 324.139 C 328.699 324.139 335.929 324.549 337.913 325.983 C 337.913 325.983 338.322 320.315 339.47 319.745 C 340.618 319.176 348.966 302.592 348.966 302.592 L 357.332 281.046 C 357.332 281.046 363.992 292.522 369.665 294.514 L 369.665 299.334 C 369.665 299.334 372.784 313.511 373.919 315.068 C 375.054 316.626 373.919 322.856 373.919 322.856 C 373.919 322.856 377.198 326.955 384.69 322.573 C 384.69 322.573 382.28 319.88 382.424 316.618 C 382.567 313.355 379.145 295.498 379.145 295.498 C 379.145 295.498 379.555 288.694 376.169 284.431 C 372.784 280.169 367.156 263.885 367.156 263.885 L 363.254 255.491 Z" fill="#c48c96" style=""/>
  <g opacity="0.1" transform="matrix(0.409863, 0, 0, 0.409863, 32.704044, 83.164337)" style="">
    <path d="M810.53,673s15.56-54.64,22.83-59.83a33,33,0,0,0,6-5.68,22,22,0,0,0,5-15.34l-3.05-53.69,51-31.44-.69-1.49L838.2,538.47l3.05,53.69a22,22,0,0,1-5,15.34,33,33,0,0,1-6,5.68C823,618.36,807.42,673,807.42,673s17.64,1,22.48,4.5c0,0,0-.54.13-1.41C823.22,673.75,810.53,673,810.53,673Z" transform="translate(-84.99 -85.07)"/>
    <path d="M920.86,669.89s2.77-15.22,0-19-10.38-38.39-10.38-38.39V600.72c-13.83-4.84-30.09-32.86-30.09-32.86L879.19,571c4.69,7.44,17.2,25.9,28.19,29.74v11.76s7.61,34.59,10.38,38.39,0,19,0,19,3.86,4.86,12.38,4.2C923.77,673.56,920.86,669.89,920.86,669.89Z" transform="translate(-84.99 -85.07)"/>
  </g>
  <path d="M 390.109 244.33 L 387.326 244.515 L 385.858 244.613 L 385.858 241.068 L 387.785 240.72 L 388.977 240.502 C 388.977 240.502 392.666 229.588 396.208 231.571 C 399.748 233.555 390.109 244.33 390.109 244.33 Z" fill="#714b4f" style=""/>
  <path d="M 345.458 215.111 C 345.458 215.111 343.614 222.198 343.048 226.587 C 342.483 230.977 356.23 227.44 356.23 227.44 C 356.23 227.44 350.983 221.063 353.963 217.661 Z" fill="#714b4f" style=""/>
  <path d="M 360.34 244.621 L 360.623 247.314 L 356.23 247.031 L 351.836 243.203 L 347.442 230.866 L 344.614 226.469 L 342.487 223.776 L 343.339 220.497 C 343.339 220.497 343.728 220.837 344.384 221.337 C 346.544 222.977 351.606 226.424 355.307 225.473 C 355.478 225.429 355.647 225.376 355.811 225.313 L 361.34 234.809 Z" fill="#e6e6f0" style=""/>
  <path d="M 344.466 219.665 C 344.466 219.665 342.2 220.075 340.638 223.493 C 339.441 226.108 335.392 228.821 333.584 229.916 C 332.888 230.341 332.393 231.03 332.211 231.825 C 331.847 233.44 331.707 236.453 333.691 240.785 C 336.81 247.589 339.076 250.565 339.076 250.565 C 339.076 250.565 339.642 257.368 338.794 259.352 C 337.945 261.335 338.794 272.25 338.794 272.25 C 338.794 272.25 353.676 275.087 358.639 272.25 C 363.603 269.414 362.894 258.499 362.894 258.499 C 362.894 258.499 367.57 268.422 369.271 268.705 L 368.279 263.176 C 368.279 263.176 362.75 257.221 362.468 249.568 C 362.468 249.568 360.767 242.621 362.185 240.781 C 362.185 240.781 386.141 242.765 387.559 241.064 C 387.559 241.064 371.825 240.355 369.415 236.527 C 369.415 236.527 362.468 230.998 362.185 227.313 C 362.101 225.906 361.296 224.643 360.058 223.972 C 359.093 223.424 357.987 223.177 356.881 223.263 L 353.68 223.485 C 353.68 223.485 359.209 233.264 358.926 234.551 C 358.643 235.838 359.209 246.175 359.209 246.175 C 359.209 246.175 352.811 232.424 349.995 230.866 C 347.18 229.309 343.896 222.899 343.896 222.899 L 344.462 219.661" opacity="0.1" style=""/>
  <path d="M 360.34 244.621 L 360.623 247.314 L 356.23 247.031 L 351.836 243.203 L 347.442 230.866 L 344.614 226.469 L 342.487 223.776 L 343.339 220.497 C 343.339 220.497 343.728 220.837 344.384 221.337 L 344.188 222.456 C 344.188 222.456 347.467 228.858 350.282 230.42 C 353.098 231.981 359.496 245.728 359.496 245.728 C 359.496 245.728 358.93 235.379 359.213 234.104 C 359.406 233.24 356.922 228.461 355.307 225.473 C 355.478 225.429 355.647 225.376 355.811 225.313 L 361.34 234.809 Z" opacity="0.1" style=""/>
  <path d="M 387.326 244.515 L 385.858 244.613 L 385.858 241.068 L 387.785 240.72 C 387.113 241.609 387.137 243.183 387.326 244.515 Z" opacity="0.1" style=""/>
  <path d="M 344.466 219.243 C 344.466 219.243 342.2 219.653 340.638 223.071 C 339.441 225.686 335.392 228.399 333.584 229.493 C 332.888 229.919 332.393 230.607 332.211 231.403 C 331.847 233.018 331.707 236.031 333.691 240.363 C 336.81 247.167 339.076 250.142 339.076 250.142 C 339.076 250.142 339.642 256.946 338.794 258.93 C 337.945 260.913 338.794 271.828 338.794 271.828 C 338.794 271.828 353.676 274.664 358.639 271.828 C 363.603 268.992 362.894 258.077 362.894 258.077 C 362.894 258.077 367.566 267.983 369.271 268.287 L 368.279 262.758 C 368.279 262.758 362.75 256.803 362.468 249.15 C 362.468 249.15 360.767 242.203 362.185 240.363 C 362.185 240.363 367.714 246.318 373.952 246.175 C 378.498 246.147 383.041 246.384 387.559 246.884 C 387.559 246.884 386.141 242.347 387.559 240.646 C 387.559 240.646 371.825 239.937 369.415 236.109 C 369.415 236.109 362.468 230.58 362.185 226.895 C 362.101 225.489 361.296 224.225 360.058 223.554 C 359.093 223.006 357.987 222.759 356.881 222.845 L 353.68 223.067 C 353.68 223.067 359.209 232.846 358.926 234.133 C 358.643 235.42 359.209 245.756 359.209 245.756 C 359.209 245.756 352.811 231.998 349.995 230.44 C 347.18 228.882 343.896 222.489 343.896 222.489 L 344.462 219.251" fill="#c48c96" style=""/>
  <path d="M 341.335 234.125 C 341.335 234.125 344.737 245.601 346.721 247.023 C 348.704 248.446 360.754 255.671 364.299 253.97 C 364.299 253.97 365.152 258.224 363.89 259.216 C 363.89 259.216 350.672 258.7 350.565 258.651 C 350.565 258.651 341.917 257.515 340.499 253.265 C 339.081 249.015 337.38 241.789 337.38 241.789 Z" opacity="0.1" style=""/>
  <ellipse cx="359.492" cy="246.388" rx="0.496" ry="0.709" fill="#ba7855" style=""/>
  <ellipse cx="360.906" cy="251.347" rx="0.496" ry="0.709" fill="#ba7855" style=""/>
  <g opacity="0.1" transform="matrix(0.409863, 0, 0, 0.409863, 32.704044, 83.164337)" style="">
    <path d="M834.23,545s-2.08-26.63,0-31.47.69-21.44.69-21.44-5.53-7.26-13.14-23.86c-4.85-10.57-4.5-17.92-3.61-21.86a7.38,7.38,0,0,1,3.35-4.66c4.41-2.7,14.28-9.29,17.21-15.67,2.15-4.68,4.84-7.05,6.78-8.23l.13-.76s-5.53,1-9.34,9.34c-2.92,6.38-12.8,13-17.21,15.67a7.38,7.38,0,0,0-3.35,4.66c-.89,3.94-1.23,11.29,3.61,21.86,7.61,16.6,13.14,23.86,13.14,23.86s1.38,16.6-.69,21.44,0,31.47,0,31.47,25.94,4.94,41.28,2.29C857.59,549.49,834.23,545,834.23,545Z" transform="translate(-84.99 -85.07)"/>
    <path d="M880.91,453.39c-.47,2.13,0,14.66.39,22.34,1.67,3.41,2.72,5.68,2.72,5.68s-1.38-25.25-.69-28.36c.66-3-11.49-24.66-12.7-26.8l-2.52.17S881.61,450.28,880.91,453.39Z" transform="translate(-84.99 -85.07)"/>
    <path d="M920,482.44c-15.22.35-28.71-14.18-28.71-14.18a5.54,5.54,0,0,0-.87,1.87c4,3.72,15,12.93,27.16,12.65a286.36,286.36,0,0,1,33.2,1.73s-.07-.23-.18-.62A275.32,275.32,0,0,0,920,482.44Z" transform="translate(-84.99 -85.07)"/>
    <path d="M893,511.49s.14,2.16.06,5.4c3.6,7.14,10.15,19.35,13.08,19.84l-.51-2.84C900.6,527.57,893,511.49,893,511.49Z" transform="translate(-84.99 -85.07)"/>
  </g>
  <path d="M 367.853 256.507 L 364.84 257.143 L 362.463 257.643 L 363.738 254.097 L 364.627 253.876 L 366.008 253.532 C 366.008 253.532 367.992 243.609 371.964 244.318 C 375.935 245.027 367.853 256.507 367.853 256.507 Z" fill="#714b4f" style=""/>
  <path d="M 364.845 257.155 L 362.468 257.655 L 363.742 254.11 L 364.632 253.888 C 364.828 254.965 364.9 256.062 364.845 257.155 Z" opacity="0.1" style=""/>
  <path d="M 341.335 233.842 C 341.335 233.842 344.737 245.318 346.721 246.74 C 348.704 248.163 360.754 255.388 364.299 253.687 C 364.299 253.687 365.152 257.942 363.89 258.934 C 363.89 258.934 350.672 258.417 350.565 258.368 C 350.565 258.368 341.917 257.233 340.499 252.983 C 339.081 248.732 337.38 241.507 337.38 241.507 Z" fill="#c48c96" style=""/>
  <path d="M 345.597 215.415 C 345.597 215.415 345.311 216.525 344.925 218.14 C 346.539 221.197 350.001 222.793 353.372 222.034 C 353.032 220.579 353.106 219.107 354.102 217.968 Z" opacity="0.1" style=""/>
  <circle cx="351.553" cy="214.279" r="7.656" fill="#714b4f" style=""/>
  <path d="M 358.201 212.173 C 358.755 212.327 359.336 212.363 359.906 212.279 C 361.118 211.951 361.965 210.858 361.98 209.603 C 361.958 208.365 361.378 207.204 360.402 206.442 C 359.754 205.901 358.979 205.52 358.385 204.918 C 357.684 204.2 357.299 203.242 356.746 202.397 C 355.834 201.001 354.482 199.95 352.906 199.409 C 351.733 198.999 350.294 198.967 349.393 199.82 C 348.93 200.258 348.659 200.885 348.142 201.258 C 347.393 201.79 346.376 201.635 345.462 201.742 C 343.78 201.997 342.336 203.072 341.609 204.61 C 340.91 206.155 340.777 207.896 341.232 209.529 C 341.409 210.226 341.671 210.898 341.859 211.578 C 342.269 213.021 342.352 214.533 342.81 215.956 C 343.269 217.378 344.216 218.771 345.651 219.197 C 345.538 217.601 345.853 216.003 346.565 214.57 C 346.682 214.257 346.913 213.999 347.212 213.849 C 347.468 213.783 347.736 213.783 347.991 213.849 C 349.789 214.115 351.623 213.744 353.176 212.8 C 353.721 212.472 354.569 211.341 355.147 211.23 C 355.893 211.103 357.422 212 358.201 212.173 Z" opacity="0.1" style=""/>
  <path d="M 358.201 211.89 C 358.755 212.045 359.336 212.081 359.906 211.996 C 361.118 211.668 361.965 210.575 361.98 209.32 C 361.958 208.082 361.378 206.921 360.402 206.16 C 359.754 205.619 358.979 205.237 358.385 204.635 C 357.684 203.918 357.299 202.959 356.746 202.115 C 355.834 200.718 354.482 199.667 352.906 199.127 C 351.733 198.717 350.294 198.684 349.393 199.537 C 348.93 199.975 348.659 200.602 348.142 200.975 C 347.393 201.508 346.376 201.352 345.462 201.459 C 343.78 201.715 342.336 202.79 341.609 204.328 C 340.91 205.872 340.777 207.613 341.232 209.246 C 341.409 209.943 341.671 210.615 341.859 211.296 C 342.269 212.738 342.352 214.25 342.81 215.673 C 343.269 217.095 344.216 218.488 345.651 218.915 C 345.541 217.319 345.859 215.723 346.573 214.292 C 346.69 213.978 346.922 213.72 347.22 213.57 C 347.476 213.505 347.744 213.505 347.999 213.57 C 349.797 213.836 351.631 213.465 353.184 212.521 C 353.729 212.193 354.577 211.062 355.156 210.951 C 355.893 210.82 357.422 211.717 358.201 211.89 Z" fill="#503f43" style=""/>
  <path d="M 434.579 186.622 L 428.333 256.585 L 400.257 264.373 L 372.259 256.585 L 366.021 186.622 L 434.579 186.622 Z" fill="#e44d26" style=""/>
  <path d="M 400.298 258.421 L 422.983 252.134 L 428.312 192.343 L 400.298 192.343 Z" fill="#f16529" style=""/>
  <path d="M 388.158 209.508 L 400.298 209.508 L 400.298 200.926 L 378.78 200.926 L 378.985 203.229 L 381.096 226.878 L 400.302 226.878 L 400.302 218.296 L 388.944 218.296 Z M 390.109 231.169 L 381.501 231.169 L 382.702 244.646 L 400.261 249.539 L 400.302 249.539 L 400.302 240.584 L 400.265 240.584 L 390.707 238.002 L 390.109 231.169 Z" fill="#ebebeb" style=""/>
  <path d="M 372.403 167.604 L 376.764 167.604 L 376.764 171.912 L 380.752 171.912 L 380.752 167.604 L 385.113 167.604 L 385.113 180.654 L 380.752 180.654 L 380.752 176.285 L 376.764 176.285 L 376.764 180.654 L 372.403 180.654 L 372.403 167.604 Z M 390.847 171.932 L 387.006 171.932 L 387.006 167.604 L 399.047 167.604 L 399.047 171.932 L 395.207 171.932 L 395.207 180.654 L 390.85 180.654 L 390.85 171.932 L 390.85 171.932 Z M 400.962 167.604 L 405.511 167.604 L 408.311 172.19 L 411.106 167.604 L 415.655 167.604 L 415.655 180.654 L 411.311 180.654 L 411.311 174.186 L 408.311 178.826 L 408.237 178.826 L 405.232 174.186 L 405.232 180.654 L 400.962 180.654 Z M 417.824 167.604 L 422.184 167.604 L 422.184 176.338 L 428.333 176.338 L 428.333 180.65 L 417.836 180.65 L 417.836 167.604 Z" style="fill: rgb(255, 255, 255);"/>
  <path d="M 400.269 226.878 L 410.835 226.878 L 409.839 238.01 L 400.269 240.592 L 400.269 249.539 L 417.865 244.663 L 417.992 243.211 L 420.008 220.616 L 420.217 218.312 L 400.269 218.312 L 400.269 226.895 Z M 400.269 209.488 L 400.269 209.508 L 421 209.508 L 421.172 207.578 L 421.582 203.225 L 421.787 200.922 L 400.269 200.922 L 400.269 209.484 Z" fill="#fff" style=""/>
  <path d="M451.72,463.51c-1.95-5.71-4.76-13-7-14.66a2.09,2.09,0,0,0-.44-.27H444v-7.05l-5.26.84a50.27,50.27,0,0,1-1.91-7.81,3.63,3.63,0,0,0,3.95.79c-.09-.14-.16-.29-.24-.44l.24-.1a9.77,9.77,0,0,1-1.27-4.79,17.44,17.44,0,0,1,.73-4.52c.94-3.25,2.53-6.29,3.42-9.55a23.22,23.22,0,0,0,.8-6.46A23.54,23.54,0,0,0,442,398.84a6.22,6.22,0,0,0-1.86-2.43,24,24,0,0,0-2.28-1.11,12.31,12.31,0,0,1-3.31-3.3,29.74,29.74,0,0,0-14.37-9.59,8.41,8.41,0,0,0-4.59-.36c-3.53,1-4.82,5.33-7.68,7.62-2.53,2-6,2.23-9.16,2.91a15.58,15.58,0,0,0-8.53,4.47,9.26,9.26,0,0,0-2.29,6.18,6.21,6.21,0,0,0,2.53,5.52,7.93,7.93,0,0,0,6.7.95,22.79,22.79,0,0,0,17.25,28.65l.62,1.1h0a47.19,47.19,0,0,1,4.27,11.17c-4.84,2.75-10.13,5.32-13.32,5.56a22.45,22.45,0,0,1-.69,3.69,20.37,20.37,0,0,1-4.19,8.25c-4.34,4.88-23.87,41.78-23.87,41.78s-.62,1.47-1.62,4c-12.13,1.49-31.92,3.64-37.45,2.53l-21.7-20.62s-7,5.35-6.4,11.85l-3.91-3.72s-20.62,15.73,11.94,26l49.54,5.75c-4.72,14.24-9.12,30.81-7.76,39.83h.41a18.73,18.73,0,0,0,2.83-.22l-.09,1.6-4.77,85.43s-1.09,15.73,13.56,22.79c0,0,17.91,52.63,10.85,58.6,0,0,.84.44,2.25,1.06l-14.73,13s-10.85,2.71-16.82,2.17a4.31,4.31,0,0,0-4.76,3.21c0,.11,0,.22-.06.34l0,.14c0,.11,0,.23,0,.35s0,.09,0,.13,0,.2,0,.3l0,.13c0,.12,0,.23.07.35l0,.13q.05.19.12.37l0,.12c.05.12.11.24.17.36l0,.08c.07.12.14.24.22.36l.07.1q.13.19.29.38l.08.1c.11.13.23.25.36.38l.06,0,.4.34.09.07.49.35.12.08.57.33.09,0,.61.3.09,0,.71.29.15.06.79.26.13,0,.85.22.07,0,1,.19.19,0,1,.15.19,0,1.15.11c2.23.17,5.24.23,8.72.22h0s0,.09,0,.13,0,.2,0,.3l0,.13c0,.12,0,.23.07.35l0,.13q.05.19.12.37l0,.12c.05.12.11.24.17.36l0,.08c.07.12.14.24.22.36l.07.1q.13.19.29.38l.08.1c.11.13.23.25.36.38l.05,0,.4.34.09.07.49.35.12.08.56.33.09,0,.61.3.09,0,.71.29.15.06.79.26.13,0,.85.22.07,0,1,.19.19,0,1,.15.19,0,1.15.11c14.11,1.09,59.14-2.17,59.14-2.17l0-.13v0l0-.16v0c.45-2.1,2.61-14.31-5.07-23.34.23-.24.45-.49.66-.75,0,0-6-10.31-2.71-13.56S413.63,677,413.63,677s-10.31-16.28-4.34-34.73-.54-38.52-.54-38.52S423,599.53,423.26,582c0-.53,0-1.08,0-1.63a5.76,5.76,0,0,0,.9.06,4.21,4.21,0,0,0,.6,0s-2.71-9.77.54-16.82,10.31-.54,16.82-29.3c4.71-20.81,8.85-44.74,10.79-56.39A29.69,29.69,0,0,0,451.72,463.51Zm-123.82,61-4.95-4.7c1.64.68,3.46,1.34,5.49,2L347.09,524C338.77,524.75,331,525.17,327.9,524.54Z" transform="matrix(0.4098626375198364, 0, 0, 0.4098626375198364, -2.130184498181393, 48.297332276625184)" fill="url(#016d359d-0d48-4404-968f-1612e9b5c7a7)" style=""/>
  <path d="M375.13,521.77s-38.38,5.33-46.38,3.73l-21.32-20.26s-20.26,15.46,11.73,25.59l59.7,6.93Z" transform="matrix(0.4098626375198364, 0, 0, 0.4098626375198364, -2.130184498181393, 48.297332276625184)" fill="#fdc2cc" style="stroke-width: 0.433345; vector-effect: non-scaling-stroke;"/>
  <path d="M375.13,521.77s-38.38,5.33-46.38,3.73l-21.32-20.26s-20.26,15.46,11.73,25.59l59.7,6.93Z" transform="matrix(0.4098626375198364, 0, 0, 0.4098626375198364, -2.130184498181393, 48.297332276625184)" opacity="0.05" style="stroke-width: 0.433345; vector-effect: non-scaling-stroke;"/>
  <path d="M300,535.22l-82.94-23-18.48-207.3H401.67l-18.5,207.27L300,535.22Z" transform="matrix(0.4098626375198364, 0, 0, 0.4098626375198364, -2.130184498181393, 48.297332276625184)" fill="#264de4" style="stroke-width: 0.433345; vector-effect: non-scaling-stroke;"/>
  <path d="M367.33,499l15.81-177.12h-83V517.59L367.33,499Z" transform="matrix(0.4098626375198364, 0, 0, 0.4098626375198364, -2.130184498181393, 48.297332276625184)" fill="#2965f1" style="stroke-width: 0.433345; vector-effect: non-scaling-stroke;"/>
  <path d="M241,398.73l2.28,25.42h56.9V398.73Zm-4.58-51.46,2.31,25.42h61.44V347.27H236.37Zm63.75,117.49-.11,0-28.32-7.65-1.81-20.28H244.36l3.56,39.92L300,491.24l.12,0Z" transform="matrix(0.4098626375198364, 0, 0, 0.4098626375198364, -2.130184498181393, 48.297332276625184)" fill="#ebebeb" style="stroke-width: 0.433345; vector-effect: non-scaling-stroke;"/>
  <path d="M246.38,248.56h30.79v12.88H259.25v12.88h17.92v12.88H246.38Zm37,0h30.79v11.2H296.21V262h17.92v25.76H283.33V276h17.92v-2.24H283.33V248.56Zm37,0h30.79v11.2H333.16V262h17.92v25.76H320.28V276H338.2v-2.24H320.28V248.56Z" transform="matrix(0.4098626375198364, 0, 0, 0.4098626375198364, -2.130184498181393, 48.297332276625184)" style="stroke-width: 0.433345; vector-effect: non-scaling-stroke; fill: rgb(255, 255, 255);"/>
  <path d="M359.14,398.73l4.59-51.46H300v25.42h35.83l-2.31,26H300v25.42h31.31l-3,33L300,464.78v26.45l52.12-14.45.38-4.3,6-66.94.62-6.83Z" transform="matrix(0.4098626375198364, 0, 0, 0.4098626375198364, -2.130184498181393, 48.297332276625184)" fill="#fff" style="stroke-width: 0.433345; vector-effect: non-scaling-stroke;"/>
  <path d="M389,738.19l-18.66,16.52s-10.66,2.67-16.52,2.13-8.53,9.06,5.33,10.13,58.1-2.13,58.1-2.13,4.26-17.06-8.53-26.65Z" transform="matrix(0.4098626375198364, 0, 0, 0.4098626375198364, -2.130184498181393, 48.297332276625184)" fill="#47465a" style="stroke-width: 0.433345; vector-effect: non-scaling-stroke;"/>
  <path d="M389,738.19l-18.66,16.52s-10.66,2.67-16.52,2.13-8.53,9.06,5.33,10.13,58.1-2.13,58.1-2.13,4.26-17.06-8.53-26.65Z" transform="matrix(0.4098626375198364, 0, 0, 0.4098626375198364, -2.130184498181393, 48.297332276625184)" opacity="0.05" style="stroke-width: 0.433345; vector-effect: non-scaling-stroke;"/>
  <path d="M417.91,757.47a29.4,29.4,0,0,1-.67,5.78s-44.24,3.2-58.1,2.13c-6.67-.51-9.5-3-10-5.38-.61,2.74,1.81,6.35,10,7,13.86,1.07,58.1-2.13,58.1-2.13A30.8,30.8,0,0,0,417.91,757.47Z" transform="matrix(0.4098626375198364, 0, 0, 0.4098626375198364, -2.130184498181393, 48.297332276625184)" fill="#fff" opacity="0.3" style="stroke-width: 0.433345; vector-effect: non-scaling-stroke;"/>
  <path d="M410.84,436s11.73,16.52,7.46,27.72,22.39-11.73,22.39-11.73S432.16,437,436.43,421Z" transform="matrix(0.4098626375198364, 0, 0, 0.4098626375198364, -2.130184498181393, 48.297332276625184)" fill="#fdc2cc" style="stroke-width: 0.433345; vector-effect: non-scaling-stroke;"/>
  <path d="M407.64,744.59,389,761.11s-10.66,2.67-16.52,2.13-8.53,9.06,5.33,10.13,58.1-2.13,58.1-2.13,4.26-17.06-8.53-26.65Z" transform="matrix(0.4098626375198364, 0, 0, 0.4098626375198364, -2.130184498181393, 48.297332276625184)" fill="#47465a" style="stroke-width: 0.433345; vector-effect: non-scaling-stroke;"/>
  <path d="M413,740.86c-2.78,3.43-6.7,4.75-10.8,4.95-9.32.44-19.58-4.95-19.58-4.95,6.93-5.86-10.66-57.57-10.66-57.57-14.39-6.93-13.33-22.39-13.33-22.39L363.29,577l1.18-21.08,14.93-9.06,11.76,9,11.16,8.56a44.86,44.86,0,0,1,1.4,8.32c1.3,19.59-14.19,24.2-14.19,24.2s6.4,19.72.53,37.85,4.26,34.12,4.26,34.12,19.19,55.44,16,58.64S413,740.86,413,740.86Z" transform="matrix(0.4098626375198364, 0, 0, 0.4098626375198364, -2.130184498181393, 48.297332276625184)" fill="#565171" style="stroke-width: 0.433345; vector-effect: non-scaling-stroke;"/>
  <path d="M413,740.86c-2.78,3.43-6.7,4.75-10.8,4.95-9.32.44-19.58-4.95-19.58-4.95,6.93-5.86-10.66-57.57-10.66-57.57-14.39-6.93-13.33-22.39-13.33-22.39L363.29,577l1.18-21.08,14.93-9.06,11.76,9,11.16,8.56a44.86,44.86,0,0,1,1.4,8.32c1.3,19.59-14.19,24.2-14.19,24.2s6.4,19.72.53,37.85,4.26,34.12,4.26,34.12,19.19,55.44,16,58.64S413,740.86,413,740.86Z" transform="matrix(0.4098626375198364, 0, 0, 0.4098626375198364, -2.130184498181393, 48.297332276625184)" opacity="0.05" style="stroke-width: 0.433345; vector-effect: non-scaling-stroke;"/>
  <path d="M431.63,747.25c-9.06,11.19-30.38,0-30.38,0a3.4,3.4,0,0,0,.93-1.45c3.91-10.63-13.19-61.45-13.19-61.45-14.39-6.93-16-23.45-16-23.45l-3.77-85.42-.49-11.06,22.43-8.56,6.89-2.63L421,570.82A41.57,41.57,0,0,1,422.44,582c-.29,17.21-14.26,21.37-14.26,21.37s6.4,19.72.53,37.85S413,675.29,413,675.29s19.19,55.44,16,58.64S431.63,747.25,431.63,747.25Z" transform="matrix(0.4098626375198364, 0, 0, 0.4098626375198364, -2.130184498181393, 48.297332276625184)" fill="#565171" style="stroke-width: 0.433345; vector-effect: non-scaling-stroke;"/>
  <path d="M422.44,582c-4.61-.66-13.94-6.21-18.73-9.22-1.83-1.15-3-1.92-3-1.92s-4.8-13.33-17.59-3.2a47.89,47.89,0,0,1-13.9,7.86,32.52,32.52,0,0,1-5.93,1.49l1.18-21.08,14.93-9.06,11.76,9,6.89-2.63L421,570.82A41.57,41.57,0,0,1,422.44,582Z" transform="matrix(0.4098626375198364, 0, 0, 0.4098626375198364, -2.130184498181393, 48.297332276625184)" opacity="0.1" style="stroke-width: 0.433345; vector-effect: non-scaling-stroke;"/>
  <path d="M451.29,479.71c-1.9,11.44-6,35-10.6,55.39-6.4,28.25-13.33,21.85-16.52,28.78s-.53,16.52-.53,16.52c-5.33.53-22.92-11.19-22.92-11.19s-4.8-13.33-17.59-3.2-22.92,9.59-22.92,9.59c-2.67-17.59,17.06-64.5,17.06-64.5s19.19-36.25,23.45-41a20,20,0,0,0,4.12-8.1,22.05,22.05,0,0,0,.68-3.62c6.93-.53,24-12.26,24-12.26l13.33-2.13v6.93a2,2,0,0,1,.44.27c2.19,1.67,5,8.79,6.87,14.4A29.17,29.17,0,0,1,451.29,479.71Z" transform="matrix(0.4098626375198364, 0, 0, 0.4098626375198364, -2.130184498181393, 48.297332276625184)" fill="#e1a0a7" style="stroke-width: 0.433345; vector-effect: non-scaling-stroke;"/>
  <path d="M389,529.77l-6.89-.8-52.81-6.13c-32-10.13-11.73-25.59-11.73-25.59l21.32,20.26c6.15,1.23,30.28-1.64,41.09-3,3.24-.42,5.29-.7,5.29-.7Z" transform="matrix(0.4098626375198364, 0, 0, 0.4098626375198364, -2.130184498181393, 48.297332276625184)" fill="#fdc2cc" style="stroke-width: 0.433345; vector-effect: non-scaling-stroke;"/>
  <path d="M440.69,457.81S426.83,446.62,406,482.86s-25.59,30.38-25.59,30.38,4.26,16,2.13,19.19c0,0,14.39-1.07,19.72,0s38.38-40.51,38.38-40.51S457.75,468.47,440.69,457.81Z" transform="matrix(0.4098626375198364, 0, 0, 0.4098626375198364, -2.130184498181393, 48.297332276625184)" opacity="0.1" style="stroke-width: 0.433345; vector-effect: non-scaling-stroke;"/>
  <path d="M440.16,455.68s-13.86-11.19-34.65,25.05-25.59,30.38-25.59,30.38,16.52,18.12,21.85,19.19,38.38-40.51,38.38-40.51S457.22,466.34,440.16,455.68Z" transform="matrix(0.4098626375198364, 0, 0, 0.4098626375198364, -2.130184498181393, 48.297332276625184)" opacity="0.1" style="stroke-width: 0.433345; vector-effect: non-scaling-stroke;"/>
  <path d="M382.1,529c.22-3.95-1.27-10.89-2.13-14.49,3.24-.42,5.29-.7,5.29-.7l3.73,16Z" transform="matrix(0.4098626375198364, 0, 0, 0.4098626375198364, -2.130184498181393, 48.297332276625184)" opacity="0.1" style="stroke-width: 0.433345; vector-effect: non-scaling-stroke;"/>
  <path d="M440.69,456.74S426.83,445.55,406,481.8s-25.59,30.38-25.59,30.38,4.26,16,2.13,19.19c0,0,14.39-1.07,19.72,0s38.38-40.51,38.38-40.51S457.75,467.4,440.69,456.74Z" transform="matrix(0.4098626375198364, 0, 0, 0.4098626375198364, -2.130184498181393, 48.297332276625184)" fill="#e1a0a7" style="stroke-width: 0.433345; vector-effect: non-scaling-stroke;"/>
  <path d="M437,422.09,411.37,437a54.69,54.69,0,0,1,3,4.88,22.49,22.49,0,0,0,4.48.45c6.83,0,10-7.17,14.13-12C432.68,426.49,435.82,426.39,437,422.09Z" transform="matrix(0.4098626375198364, 0, 0, 0.4098626375198364, -2.130184498181393, 48.297332276625184)" opacity="0.1" style="stroke-width: 0.433345; vector-effect: non-scaling-stroke;"/>
  <circle cx="333.31" cy="333.83" r="22.39" fill="#fdc2cc" transform="matrix(0.4098626375198364, 0, 0, 0.4098626375198364, 32.70404401744361, 83.16433667115643)" style="stroke-width: 0.433345; vector-effect: non-scaling-stroke;"/>
  <path d="M390,400.79a15.3,15.3,0,0,1,8.38-4.4c3.11-.67,6.52-.87,9-2.86,2.81-2.25,4.07-6.53,7.54-7.49a8.27,8.27,0,0,1,4.51.36,29.21,29.21,0,0,1,14.12,9.42,12.09,12.09,0,0,0,3.26,3.25,23.6,23.6,0,0,1,2.24,1.09,6.11,6.11,0,0,1,1.82,2.39,23.18,23.18,0,0,1,1.62,16.27c-.87,3.21-2.43,6.19-3.36,9.39s-1.16,6.82.53,9.68c-1.64.84-3.71-.22-4.74-1.75s-1.34-3.41-1.88-5.18a19.75,19.75,0,0,0-5.78-9c-1.68-1.48-4.68-2.48-5.85-.57-.45.74-.42,1.69-.81,2.46-.76,1.51-3,1.81-4.43,1a6.79,6.79,0,0,1-2.77-4.11c-2.19-7.43-5.94-12.1-13.88-8.93-3,1.18-6.45,2-9.3,0C386.57,409.13,387.3,403.82,390,400.79Z" transform="matrix(0.4098626375198364, 0, 0, 0.4098626375198364, -2.130184498181393, 48.297332276625184)" opacity="0.1" style="stroke-width: 0.433345; vector-effect: non-scaling-stroke;"/>
  <path d="M390,400.25a15.3,15.3,0,0,1,8.38-4.4c3.11-.67,6.52-.87,9-2.86,2.81-2.25,4.07-6.53,7.54-7.49a8.27,8.27,0,0,1,4.51.36,29.21,29.21,0,0,1,14.12,9.42,12.09,12.09,0,0,0,3.26,3.25,23.6,23.6,0,0,1,2.24,1.09,6.11,6.11,0,0,1,1.82,2.39,23.18,23.18,0,0,1,1.62,16.27c-.87,3.21-2.43,6.19-3.36,9.39s-1.16,6.82.53,9.68c-1.64.84-3.71-.22-4.74-1.75s-1.34-3.41-1.88-5.18a19.75,19.75,0,0,0-5.78-9c-1.68-1.48-4.68-2.48-5.85-.57-.45.74-.42,1.69-.81,2.46-.76,1.51-3,1.81-4.43,1a6.79,6.79,0,0,1-2.77-4.11c-2.19-7.43-5.94-12.1-13.88-8.93-3,1.18-6.45,2-9.3,0C386.57,408.6,387.3,403.29,390,400.25Z" transform="matrix(0.4098626375198364, 0, 0, 0.4098626375198364, -2.130184498181393, 48.297332276625184)" fill="#8f5a6a" style="stroke-width: 0.433345; vector-effect: non-scaling-stroke;"/>
  <path d="M443.26,451.15H432.43s-21.32,10.66-21.85,10.13c-.36-.36-3.66.26-5.75.69a22.05,22.05,0,0,0,.68-3.62c6.93-.53,24-12.26,24-12.26l13.33-2.13v6.93A2,2,0,0,1,443.26,451.15Z" transform="matrix(0.4098626375198364, 0, 0, 0.4098626375198364, -2.130184498181393, 48.297332276625184)" opacity="0.05" style="stroke-width: 0.433345; vector-effect: non-scaling-stroke;"/>
  <path d="M436.56,763.86a29.4,29.4,0,0,1-.67,5.78s-44.24,3.2-58.1,2.13c-6.67-.51-9.5-3-10-5.38-.61,2.74,1.81,6.35,10,7,13.86,1.07,58.1-2.13,58.1-2.13A30.8,30.8,0,0,0,436.56,763.86Z" transform="matrix(0.4098626375198364, 0, 0, 0.4098626375198364, -2.130184498181393, 48.297332276625184)" fill="#fff" opacity="0.3" style="stroke-width: 0.433345; vector-effect: non-scaling-stroke;"/>
  <g opacity="0.05" transform="matrix(0.4098626375198364, 0, 0, 0.4098626375198364, 32.70404401744361, 83.16433667115643)" style="stroke-width: 0.433345; vector-effect: non-scaling-stroke;">
    <path d="M378.06,565.48c-7.19,5.7-13.55,8-17.73,9,0,.4.08.79.14,1.17,0,0,10.13.53,22.92-9.59a17.18,17.18,0,0,1,6.85-3.58C387.45,561.11,383.47,561.2,378.06,565.48Z" transform="translate(-84.99 -85.07)"/>
    <path d="M450.4,465.54c-1.91-5.61-4.68-12.72-6.87-14.4a2,2,0,0,0-.44-.27s-4.41.15-4.26.27c2.19,1.67,4.33,8.26,6.24,13.86a29.17,29.17,0,0,1,1.16,14.16c-1.9,11.44-6,35-10.6,55.39-6.4,28.25-13.33,21.85-16.52,28.78-2.62,5.68-1.31,13.14-.74,15.65a13.41,13.41,0,0,0,5.54,1.41s-2.67-9.59.53-16.52,10.13-.53,16.52-28.78c4.63-20.44,8.7-44,10.6-55.39A29.17,29.17,0,0,0,450.4,465.54Z" transform="translate(-84.99 -85.07)"/>
  </g>
  <path d="M512.35,565.11a11.67,11.67,0,0,0,3.83-5.78c.5-2.3-.48-5.05-2.68-5.89-2.46-.94-5.09.76-7.08,2.49s-4.28,3.69-6.89,3.32a10.48,10.48,0,0,0,3.24-9.81,4.1,4.1,0,0,0-.9-2c-1.37-1.46-3.84-.83-5.48.32-5.2,3.66-6.65,10.72-6.68,17.08-.52-2.29-.08-4.68-.1-7s-.66-5-2.64-6.22a8,8,0,0,0-4-.95c-2.34-.09-4.94.15-6.54,1.86-2,2.12-1.47,5.69.26,8s4.35,3.8,6.77,5.42a15,15,0,0,1,4.84,4.61,4.57,4.57,0,0,1,.36.82h14.65A40.83,40.83,0,0,0,512.35,565.11Z" transform="matrix(0.4098626375198364, 0, 0, 0.4098626375198364, -2.130184498181393, 48.297332276625184)" fill="#6cb5fd" style="stroke-width: 0.433345; vector-effect: non-scaling-stroke;"/>
  <path d="M539.26,752.88c2.33-2.17,4.52-4.73,5.2-7.84s-.65-6.85-3.63-8c-3.33-1.28-6.9,1-9.6,3.37s-5.8,5-9.33,4.5a14.21,14.21,0,0,0,4.39-13.3,5.56,5.56,0,0,0-1.22-2.7c-1.85-2-5.21-1.13-7.42.43-7,5-9,14.53-9.05,23.15-.71-3.11-.11-6.35-.13-9.54s-.89-6.72-3.58-8.44a10.79,10.79,0,0,0-5.46-1.28c-3.17-.12-6.7.2-8.86,2.52-2.69,2.88-2,7.71.35,10.88s5.9,5.16,9.17,7.35a20.34,20.34,0,0,1,6.55,6.25,6.19,6.19,0,0,1,.49,1.12H527A55.36,55.36,0,0,0,539.26,752.88Z" transform="matrix(0.4098626375198364, 0, 0, 0.4098626375198364, -2.130184498181393, 48.297332276625184)" fill="#6cb5fd" style="stroke-width: 0.433345; vector-effect: non-scaling-stroke;"/>
</svg>