<svg width="300" height="397" viewBox="0 0 300 397" fill="none" xmlns="http://www.w3.org/2000/svg">
<path d="M25.0311 192L20.5511 185.7C20.0471 185.756 19.5244 185.784 18.9831 185.784H13.7191V192H11.6471V172.4H18.9831C21.4844 172.4 23.4444 172.997 24.8631 174.192C26.2817 175.387 26.9911 177.029 26.9911 179.12C26.9911 180.651 26.5991 181.948 25.8151 183.012C25.0497 184.057 23.9484 184.813 22.5111 185.28L27.2991 192H25.0311ZM18.9271 184.02C20.8684 184.02 22.3524 183.591 23.3791 182.732C24.4057 181.873 24.9191 180.669 24.9191 179.12C24.9191 177.533 24.4057 176.32 23.3791 175.48C22.3524 174.621 20.8684 174.192 18.9271 174.192H13.7191V184.02H18.9271ZM44.2855 185.252H31.9655C32.0775 186.783 32.6655 188.024 33.7295 188.976C34.7935 189.909 36.1375 190.376 37.7615 190.376C38.6761 190.376 39.5161 190.217 40.2815 189.9C41.0468 189.564 41.7095 189.079 42.2695 188.444L43.3895 189.732C42.7361 190.516 41.9148 191.113 40.9255 191.524C39.9548 191.935 38.8815 192.14 37.7055 192.14C36.1935 192.14 34.8495 191.823 33.6735 191.188C32.5161 190.535 31.6108 189.639 30.9575 188.5C30.3041 187.361 29.9775 186.073 29.9775 184.636C29.9775 183.199 30.2855 181.911 30.9015 180.772C31.5361 179.633 32.3948 178.747 33.4775 178.112C34.5788 177.477 35.8108 177.16 37.1735 177.16C38.5361 177.16 39.7588 177.477 40.8415 178.112C41.9241 178.747 42.7735 179.633 43.3895 180.772C44.0055 181.892 44.3135 183.18 44.3135 184.636L44.2855 185.252ZM37.1735 178.868C35.7548 178.868 34.5601 179.325 33.5895 180.24C32.6375 181.136 32.0961 182.312 31.9655 183.768H42.4095C42.2788 182.312 41.7281 181.136 40.7575 180.24C39.8055 179.325 38.6108 178.868 37.1735 178.868ZM53.1017 177.16C55.0244 177.16 56.4991 177.645 57.5257 178.616C58.5524 179.568 59.0657 180.987 59.0657 182.872V192H57.1617V189.704C56.7137 190.469 56.0511 191.067 55.1737 191.496C54.3151 191.925 53.2884 192.14 52.0937 192.14C50.4511 192.14 49.1444 191.748 48.1737 190.964C47.2031 190.18 46.7177 189.144 46.7177 187.856C46.7177 186.605 47.1657 185.597 48.0617 184.832C48.9764 184.067 50.4231 183.684 52.4017 183.684H57.0777V182.788C57.0777 181.519 56.7231 180.557 56.0137 179.904C55.3044 179.232 54.2684 178.896 52.9057 178.896C51.9724 178.896 51.0764 179.055 50.2177 179.372C49.3591 179.671 48.6217 180.091 48.0057 180.632L47.1097 179.148C47.8564 178.513 48.7524 178.028 49.7977 177.692C50.8431 177.337 51.9444 177.16 53.1017 177.16ZM52.4017 190.572C53.5217 190.572 54.4831 190.32 55.2857 189.816C56.0884 189.293 56.6857 188.547 57.0777 187.576V185.168H52.4577C49.9377 185.168 48.6777 186.045 48.6777 187.8C48.6777 188.659 49.0044 189.34 49.6577 189.844C50.3111 190.329 51.2257 190.572 52.4017 190.572ZM62.2814 197.572C61.6654 197.572 61.0867 197.488 60.5454 197.32C59.9854 197.171 59.528 196.937 59.1734 196.62L59.8734 195.108C60.452 195.612 61.2174 195.864 62.1694 195.864C62.9534 195.864 63.5507 195.631 63.9614 195.164C64.3907 194.697 64.6054 194.007 64.6054 193.092V177.272H66.5934V193.092C66.5934 194.473 66.22 195.565 65.4734 196.368C64.7267 197.171 63.6627 197.572 62.2814 197.572ZM65.6134 174.024C65.2027 174.024 64.8574 173.884 64.5774 173.604C64.2974 173.324 64.1574 172.988 64.1574 172.596C64.1574 172.223 64.2974 171.896 64.5774 171.616C64.8574 171.336 65.2027 171.196 65.6134 171.196C66.024 171.196 66.3694 171.336 66.6494 171.616C66.9294 171.877 67.0694 172.195 67.0694 172.568C67.0694 172.979 66.9294 173.324 66.6494 173.604C66.3694 173.884 66.024 174.024 65.6134 174.024ZM85.421 177.272V192H83.517V189.312C82.9943 190.208 82.2756 190.908 81.361 191.412C80.4463 191.897 79.401 192.14 78.225 192.14C76.3023 192.14 74.781 191.608 73.661 190.544C72.5596 189.461 72.009 187.884 72.009 185.812V177.272H73.997V185.616C73.997 187.165 74.3796 188.341 75.145 189.144C75.9103 189.947 77.0023 190.348 78.421 190.348C79.9703 190.348 81.193 189.881 82.089 188.948C82.985 187.996 83.433 186.68 83.433 185V177.272H85.421ZM94.9368 192.14C93.7421 192.14 92.5941 191.972 91.4928 191.636C90.4101 191.281 89.5608 190.843 88.9448 190.32L89.8408 188.752C90.4568 189.237 91.2315 189.639 92.1648 189.956C93.0981 190.255 94.0688 190.404 95.0768 190.404C96.4208 190.404 97.4101 190.199 98.0448 189.788C98.6981 189.359 99.0248 188.761 99.0248 187.996C99.0248 187.455 98.8475 187.035 98.4928 186.736C98.1381 186.419 97.6901 186.185 97.1488 186.036C96.6075 185.868 95.8888 185.709 94.9928 185.56C93.7981 185.336 92.8368 185.112 92.1088 184.888C91.3808 184.645 90.7555 184.244 90.2328 183.684C89.7288 183.124 89.4768 182.349 89.4768 181.36C89.4768 180.128 89.9901 179.12 91.0168 178.336C92.0435 177.552 93.4715 177.16 95.3008 177.16C96.2528 177.16 97.2048 177.291 98.1568 177.552C99.1088 177.795 99.8928 178.121 100.509 178.532L99.6408 180.128C98.4275 179.288 96.9808 178.868 95.3008 178.868C94.0315 178.868 93.0701 179.092 92.4168 179.54C91.7821 179.988 91.4648 180.576 91.4648 181.304C91.4648 181.864 91.6421 182.312 91.9968 182.648C92.3701 182.984 92.8275 183.236 93.3688 183.404C93.9101 183.553 94.6568 183.712 95.6088 183.88C96.7848 184.104 97.7275 184.328 98.4368 184.552C99.1461 184.776 99.7528 185.159 100.257 185.7C100.761 186.241 101.013 186.988 101.013 187.94C101.013 189.228 100.471 190.255 99.3888 191.02C98.3248 191.767 96.8408 192.14 94.9368 192.14ZM112.444 191.104C112.071 191.44 111.604 191.701 111.044 191.888C110.503 192.056 109.933 192.14 109.336 192.14C107.955 192.14 106.891 191.767 106.144 191.02C105.397 190.273 105.024 189.219 105.024 187.856V178.952H102.392V177.272H105.024V174.052H107.012V177.272H111.492V178.952H107.012V187.744C107.012 188.621 107.227 189.293 107.656 189.76C108.104 190.208 108.739 190.432 109.56 190.432C109.971 190.432 110.363 190.367 110.736 190.236C111.128 190.105 111.464 189.919 111.744 189.676L112.444 191.104ZM128.367 185.252H116.047C116.159 186.783 116.747 188.024 117.811 188.976C118.875 189.909 120.219 190.376 121.843 190.376C122.758 190.376 123.598 190.217 124.363 189.9C125.129 189.564 125.791 189.079 126.351 188.444L127.471 189.732C126.818 190.516 125.997 191.113 125.007 191.524C124.037 191.935 122.963 192.14 121.787 192.14C120.275 192.14 118.931 191.823 117.755 191.188C116.598 190.535 115.693 189.639 115.039 188.5C114.386 187.361 114.059 186.073 114.059 184.636C114.059 183.199 114.367 181.911 114.983 180.772C115.618 179.633 116.477 178.747 117.559 178.112C118.661 177.477 119.893 177.16 121.255 177.16C122.618 177.16 123.841 177.477 124.923 178.112C126.006 178.747 126.855 179.633 127.471 180.772C128.087 181.892 128.395 183.18 128.395 184.636L128.367 185.252ZM121.255 178.868C119.837 178.868 118.642 179.325 117.671 180.24C116.719 181.136 116.178 182.312 116.047 183.768H126.491C126.361 182.312 125.81 181.136 124.839 180.24C123.887 179.325 122.693 178.868 121.255 178.868ZM153.21 171.224V192H151.306V189.088C150.709 190.077 149.915 190.833 148.926 191.356C147.955 191.879 146.854 192.14 145.622 192.14C144.241 192.14 142.99 191.823 141.87 191.188C140.75 190.553 139.873 189.667 139.238 188.528C138.603 187.389 138.286 186.092 138.286 184.636C138.286 183.18 138.603 181.883 139.238 180.744C139.873 179.605 140.75 178.728 141.87 178.112C142.99 177.477 144.241 177.16 145.622 177.16C146.817 177.16 147.89 177.412 148.842 177.916C149.813 178.401 150.606 179.12 151.222 180.072V171.224H153.21ZM145.79 190.376C146.817 190.376 147.741 190.143 148.562 189.676C149.402 189.191 150.055 188.509 150.522 187.632C151.007 186.755 151.25 185.756 151.25 184.636C151.25 183.516 151.007 182.517 150.522 181.64C150.055 180.763 149.402 180.091 148.562 179.624C147.741 179.139 146.817 178.896 145.79 178.896C144.745 178.896 143.802 179.139 142.962 179.624C142.141 180.091 141.487 180.763 141.002 181.64C140.535 182.517 140.302 183.516 140.302 184.636C140.302 185.756 140.535 186.755 141.002 187.632C141.487 188.509 142.141 189.191 142.962 189.676C143.802 190.143 144.745 190.376 145.79 190.376ZM171.571 185.252H159.251C159.363 186.783 159.951 188.024 161.015 188.976C162.079 189.909 163.423 190.376 165.047 190.376C165.961 190.376 166.801 190.217 167.567 189.9C168.332 189.564 168.995 189.079 169.555 188.444L170.675 189.732C170.021 190.516 169.2 191.113 168.211 191.524C167.24 191.935 166.167 192.14 164.991 192.14C163.479 192.14 162.135 191.823 160.959 191.188C159.801 190.535 158.896 189.639 158.243 188.5C157.589 187.361 157.263 186.073 157.263 184.636C157.263 183.199 157.571 181.911 158.187 180.772C158.821 179.633 159.68 178.747 160.763 178.112C161.864 177.477 163.096 177.16 164.459 177.16C165.821 177.16 167.044 177.477 168.127 178.112C169.209 178.747 170.059 179.633 170.675 180.772C171.291 181.892 171.599 183.18 171.599 184.636L171.571 185.252ZM164.459 178.868C163.04 178.868 161.845 179.325 160.875 180.24C159.923 181.136 159.381 182.312 159.251 183.768H169.695C169.564 182.312 169.013 181.136 168.043 180.24C167.091 179.325 165.896 178.868 164.459 178.868ZM190.561 177.16C191.943 177.16 193.193 177.477 194.313 178.112C195.433 178.728 196.311 179.605 196.945 180.744C197.58 181.883 197.897 183.18 197.897 184.636C197.897 186.111 197.58 187.417 196.945 188.556C196.311 189.695 195.433 190.581 194.313 191.216C193.212 191.832 191.961 192.14 190.561 192.14C189.367 192.14 188.284 191.897 187.313 191.412C186.361 190.908 185.577 190.18 184.961 189.228V197.432H182.973V177.272H184.877V180.184C185.475 179.213 186.259 178.467 187.229 177.944C188.219 177.421 189.329 177.16 190.561 177.16ZM190.421 190.376C191.448 190.376 192.381 190.143 193.221 189.676C194.061 189.191 194.715 188.509 195.181 187.632C195.667 186.755 195.909 185.756 195.909 184.636C195.909 183.516 195.667 182.527 195.181 181.668C194.715 180.791 194.061 180.109 193.221 179.624C192.381 179.139 191.448 178.896 190.421 178.896C189.376 178.896 188.433 179.139 187.593 179.624C186.772 180.109 186.119 180.791 185.633 181.668C185.167 182.527 184.933 183.516 184.933 184.636C184.933 185.756 185.167 186.755 185.633 187.632C186.119 188.509 186.772 189.191 187.593 189.676C188.433 190.143 189.376 190.376 190.421 190.376ZM207.02 177.16C208.942 177.16 210.417 177.645 211.444 178.616C212.47 179.568 212.984 180.987 212.984 182.872V192H211.08V189.704C210.632 190.469 209.969 191.067 209.092 191.496C208.233 191.925 207.206 192.14 206.012 192.14C204.369 192.14 203.062 191.748 202.092 190.964C201.121 190.18 200.636 189.144 200.636 187.856C200.636 186.605 201.084 185.597 201.98 184.832C202.894 184.067 204.341 183.684 206.32 183.684H210.996V182.788C210.996 181.519 210.641 180.557 209.932 179.904C209.222 179.232 208.186 178.896 206.824 178.896C205.89 178.896 204.994 179.055 204.136 179.372C203.277 179.671 202.54 180.091 201.924 180.632L201.028 179.148C201.774 178.513 202.67 178.028 203.716 177.692C204.761 177.337 205.862 177.16 207.02 177.16ZM206.32 190.572C207.44 190.572 208.401 190.32 209.204 189.816C210.006 189.293 210.604 188.547 210.996 187.576V185.168H206.376C203.856 185.168 202.596 186.045 202.596 187.8C202.596 188.659 202.922 189.34 203.576 189.844C204.229 190.329 205.144 190.572 206.32 190.572ZM209.092 171.504H211.752L207.216 174.976H205.256L209.092 171.504ZM232.074 177.272V190.208C232.074 192.709 231.458 194.557 230.226 195.752C229.013 196.965 227.174 197.572 224.71 197.572C223.347 197.572 222.05 197.367 220.818 196.956C219.605 196.564 218.615 196.013 217.85 195.304L218.858 193.792C219.567 194.427 220.426 194.921 221.434 195.276C222.461 195.631 223.534 195.808 224.654 195.808C226.521 195.808 227.893 195.369 228.77 194.492C229.647 193.633 230.086 192.289 230.086 190.46V188.584C229.47 189.517 228.658 190.227 227.65 190.712C226.661 191.197 225.559 191.44 224.346 191.44C222.965 191.44 221.705 191.141 220.566 190.544C219.446 189.928 218.559 189.079 217.906 187.996C217.271 186.895 216.954 185.653 216.954 184.272C216.954 182.891 217.271 181.659 217.906 180.576C218.559 179.493 219.446 178.653 220.566 178.056C221.686 177.459 222.946 177.16 224.346 177.16C225.597 177.16 226.726 177.412 227.734 177.916C228.742 178.42 229.554 179.148 230.17 180.1V177.272H232.074ZM224.542 189.676C225.606 189.676 226.567 189.452 227.426 189.004C228.285 188.537 228.947 187.893 229.414 187.072C229.899 186.251 230.142 185.317 230.142 184.272C230.142 183.227 229.899 182.303 229.414 181.5C228.947 180.679 228.285 180.044 227.426 179.596C226.586 179.129 225.625 178.896 224.542 178.896C223.478 178.896 222.517 179.12 221.658 179.568C220.818 180.016 220.155 180.651 219.67 181.472C219.203 182.293 218.97 183.227 218.97 184.272C218.97 185.317 219.203 186.251 219.67 187.072C220.155 187.893 220.818 188.537 221.658 189.004C222.517 189.452 223.478 189.676 224.542 189.676ZM237.633 177.272H239.621V192H237.633V177.272ZM238.641 174.052C238.231 174.052 237.885 173.912 237.605 173.632C237.325 173.352 237.185 173.016 237.185 172.624C237.185 172.251 237.325 171.924 237.605 171.644C237.885 171.364 238.231 171.224 238.641 171.224C239.052 171.224 239.397 171.364 239.677 171.644C239.957 171.905 240.097 172.223 240.097 172.596C240.097 173.007 239.957 173.352 239.677 173.632C239.397 173.912 239.052 174.052 238.641 174.052ZM252.657 177.16C254.505 177.16 255.97 177.701 257.053 178.784C258.154 179.848 258.705 181.407 258.705 183.46V192H256.717V183.656C256.717 182.125 256.334 180.959 255.569 180.156C254.804 179.353 253.712 178.952 252.293 178.952C250.706 178.952 249.446 179.428 248.513 180.38C247.598 181.313 247.141 182.611 247.141 184.272V192H245.153V177.272H247.057V179.988C247.598 179.092 248.345 178.401 249.297 177.916C250.268 177.412 251.388 177.16 252.657 177.16ZM269.254 177.16C271.177 177.16 272.651 177.645 273.678 178.616C274.705 179.568 275.218 180.987 275.218 182.872V192H273.314V189.704C272.866 190.469 272.203 191.067 271.326 191.496C270.467 191.925 269.441 192.14 268.246 192.14C266.603 192.14 265.297 191.748 264.326 190.964C263.355 190.18 262.87 189.144 262.87 187.856C262.87 186.605 263.318 185.597 264.214 184.832C265.129 184.067 266.575 183.684 268.554 183.684H273.23V182.788C273.23 181.519 272.875 180.557 272.166 179.904C271.457 179.232 270.421 178.896 269.058 178.896C268.125 178.896 267.229 179.055 266.37 179.372C265.511 179.671 264.774 180.091 264.158 180.632L263.262 179.148C264.009 178.513 264.905 178.028 265.95 177.692C266.995 177.337 268.097 177.16 269.254 177.16ZM268.554 190.572C269.674 190.572 270.635 190.32 271.438 189.816C272.241 189.293 272.838 188.547 273.23 187.576V185.168H268.61C266.09 185.168 264.83 186.045 264.83 187.8C264.83 188.659 265.157 189.34 265.81 189.844C266.463 190.329 267.378 190.572 268.554 190.572ZM284.566 192.14C283.371 192.14 282.223 191.972 281.122 191.636C280.039 191.281 279.19 190.843 278.574 190.32L279.47 188.752C280.086 189.237 280.86 189.639 281.794 189.956C282.727 190.255 283.698 190.404 284.706 190.404C286.05 190.404 287.039 190.199 287.674 189.788C288.327 189.359 288.654 188.761 288.654 187.996C288.654 187.455 288.476 187.035 288.122 186.736C287.767 186.419 287.319 186.185 286.778 186.036C286.236 185.868 285.518 185.709 284.622 185.56C283.427 185.336 282.466 185.112 281.738 184.888C281.01 184.645 280.384 184.244 279.862 183.684C279.358 183.124 279.106 182.349 279.106 181.36C279.106 180.128 279.619 179.12 280.646 178.336C281.672 177.552 283.1 177.16 284.93 177.16C285.882 177.16 286.834 177.291 287.786 177.552C288.738 177.795 289.522 178.121 290.138 178.532L289.27 180.128C288.056 179.288 286.61 178.868 284.93 178.868C283.66 178.868 282.699 179.092 282.046 179.54C281.411 179.988 281.094 180.576 281.094 181.304C281.094 181.864 281.271 182.312 281.626 182.648C281.999 182.984 282.456 183.236 282.998 183.404C283.539 183.553 284.286 183.712 285.238 183.88C286.414 184.104 287.356 184.328 288.066 184.552C288.775 184.776 289.382 185.159 289.886 185.7C290.39 186.241 290.642 186.988 290.642 187.94C290.642 189.228 290.1 190.255 289.018 191.02C287.954 191.767 286.47 192.14 284.566 192.14Z" fill="white"/>
<g clip-path="url(#clip0)">
<path d="M128.58 158.824C148.403 158.824 164.473 155.833 164.473 152.143C164.473 148.454 148.403 145.463 128.58 145.463C108.757 145.463 92.6875 148.454 92.6875 152.143C92.6875 155.833 108.757 158.824 128.58 158.824Z" fill="#F2F2F2"/>
<path d="M247.274 18.5645H55.8813V121.642H247.274V18.5645Z" fill="#F2F2F2"/>
<path d="M247.274 99.428H229.186V121.642H247.274V99.428Z" fill="#3F3D56"/>
<path d="M244.69 111.711C244.69 116.025 242.125 117.531 238.962 117.531C235.799 117.531 233.235 116.025 233.235 111.711C233.235 107.397 238.962 101.908 238.962 101.908C238.962 101.908 244.69 107.397 244.69 111.711Z" fill="#6CB5FD"/>
<path d="M238.754 116.871L238.812 113.261L241.253 108.794L238.821 112.694L238.848 111.071L240.53 107.839L238.855 110.641L238.902 107.721L240.704 105.149L238.91 107.262L238.939 101.908L238.753 108.996L238.768 108.704L236.937 105.899L238.739 109.265L238.568 112.526L238.563 112.439L236.452 109.488L238.557 112.745L238.536 113.153L238.532 113.159L238.533 113.193L238.1 121.466H238.679L238.748 117.193L240.848 113.944L238.754 116.871Z" fill="#3F3D56"/>
<path d="M69.9728 9.25594C69.0576 9.25594 68.163 8.98452 67.4021 8.47599C66.6412 7.96746 66.0481 7.24467 65.6979 6.39902C65.3477 5.55337 65.2561 4.62284 65.4346 3.7251C65.6131 2.82736 66.0538 2.00274 66.7009 1.3555C67.3481 0.70827 68.1725 0.267498 69.0701 0.088927C69.9676 -0.0896442 70.898 0.00200582 71.7435 0.352286C72.589 0.702566 73.3116 1.29574 73.82 2.05681C74.3285 2.81788 74.5998 3.71265 74.5998 4.62797C74.5985 5.85496 74.1105 7.0313 73.2431 7.89891C72.3756 8.76652 71.1995 9.25456 69.9728 9.25594V9.25594ZM69.9728 0.420727C69.1408 0.420727 68.3276 0.667477 67.6358 1.12978C66.9441 1.59207 66.4049 2.24916 66.0865 3.01793C65.7682 3.7867 65.6849 4.63264 65.8472 5.44877C66.0095 6.26489 66.4101 7.01455 66.9984 7.60295C67.5867 8.19134 68.3362 8.59204 69.1521 8.75438C69.9681 8.91672 70.8139 8.8334 71.5825 8.51496C72.3511 8.19653 73.0081 7.65727 73.4703 6.96539C73.9325 6.27352 74.1792 5.46009 74.1792 4.62797C74.1779 3.51253 73.7343 2.44315 72.9458 1.65441C72.1572 0.865675 71.088 0.422003 69.9728 0.420727V0.420727Z" fill="#3F3D56"/>
<path d="M44.7342 29.8714C46.2442 29.8714 47.4684 28.647 47.4684 27.1367C47.4684 25.6263 46.2442 24.402 44.7342 24.402C43.2241 24.402 42 25.6263 42 27.1367C42 28.647 43.2241 29.8714 44.7342 29.8714Z" fill="#3F3D56"/>
<path d="M255.266 49.8559C256.776 49.8559 258 48.6315 258 47.1212C258 45.6108 256.776 44.3865 255.266 44.3865C253.756 44.3865 252.532 45.6108 252.532 47.1212C252.532 48.6315 253.756 49.8559 255.266 49.8559Z" fill="#3F3D56"/>
<path d="M221.509 39.6007H81.856V40.8629H221.509V39.6007Z" fill="#3F3D56"/>
<path d="M221.509 50.9602H81.856V52.2224H221.509V50.9602Z" fill="#3F3D56"/>
<path d="M221.509 62.3198H81.856V63.582H221.509V62.3198Z" fill="#3F3D56"/>
<path d="M108.987 34.9728H105.622V45.4909H108.987V34.9728Z" fill="#6CB5FD"/>
<path d="M147.266 46.3323H143.901V56.8504H147.266V46.3323Z" fill="#6CB5FD"/>
<path d="M212.886 57.6919H209.521V68.21H212.886V57.6919Z" fill="#6CB5FD"/>
<path d="M131.492 88.4048H81.856V89.667H131.492V88.4048Z" fill="#3F3D56"/>
<path d="M106.674 93.0327H81.856V94.2949H106.674V93.0327Z" fill="#3F3D56"/>
<path d="M89.4274 105.234H81.6455V97.4503H89.2171V97.871H82.0662V104.813H89.0068V100.856H89.4274V105.234Z" fill="#3F3D56"/>
<path d="M221.509 88.4048H171.874V89.667H221.509V88.4048Z" fill="#3F3D56"/>
<path d="M187.858 93.0327H171.874V94.2949H187.858V93.0327Z" fill="#3F3D56"/>
<path d="M221.509 93.0327H205.525V94.2949H221.509V93.0327Z" fill="#3F3D56"/>
<path d="M179.445 105.234H171.663V97.4503H179.445V105.234ZM172.084 104.813H179.024V97.871H172.084V104.813Z" fill="#3F3D56"/>
<path d="M121.507 70.1092H115.984V67.4039H120.605L121.619 67.9675L121.507 70.1092Z" fill="#575A89"/>
<path d="M111.927 144.618L112.153 148.676L115.534 147.999L114.97 143.941L111.927 144.618Z" fill="#FFB9B9"/>
<path d="M127.93 142.476C127.93 142.476 128.043 145.858 127.705 146.759C127.367 147.661 128.607 148.112 128.607 148.112H131.311L132.889 148.337V146.647C132.889 146.647 131.086 143.829 131.086 142.25C131.086 140.672 127.93 142.476 127.93 142.476Z" fill="#FFB9B9"/>
<path d="M112.491 147.999C112.491 147.999 114.745 146.934 115.534 147.579C116.323 148.225 119.253 153.748 118.126 154.086C118.126 154.086 117.337 155.439 114.632 154.537C111.928 153.635 111.928 152.621 111.928 152.621C111.928 152.621 111.139 151.944 111.139 151.719C111.139 151.494 111.477 149.465 111.477 149.465C111.477 149.465 111.727 147.767 112.109 147.883L112.491 147.999Z" fill="#2F2E41"/>
<path d="M128.156 146.308C128.156 146.308 127.818 145.97 127.592 146.308C127.367 146.647 126.127 150.93 127.254 151.155C128.381 151.381 130.072 152.17 130.297 151.945C130.485 151.705 130.637 151.439 130.748 151.155C130.748 151.155 132.551 151.945 133.115 152.621C133.678 153.297 140.44 154.763 140.215 152.621C139.989 150.479 136.608 148.676 136.608 148.676L132.889 146.196C132.889 146.196 131.424 146.308 131.086 146.985C130.748 147.661 128.381 147.548 128.156 146.308Z" fill="#2F2E41"/>
<path d="M95.1349 102.685C95.1349 102.685 93.8953 104.264 94.1207 104.376C94.3461 104.489 99.3048 105.616 102.01 104.94C104.714 104.264 110.349 104.376 110.687 103.587C111.025 102.798 115.195 92.9915 115.195 92.9915L113.843 85.5519L112.378 83.6357L108.997 80.705L102.235 93.3297L95.1349 102.685Z" fill="#575A89"/>
<path opacity="0.1" d="M95.1349 102.685C95.1349 102.685 93.8953 104.264 94.1207 104.376C94.3461 104.489 99.3048 105.616 102.01 104.94C104.714 104.264 110.349 104.376 110.687 103.587C111.025 102.798 115.195 92.9915 115.195 92.9915L113.843 85.5519L112.378 83.6357L108.997 80.705L102.235 93.3297L95.1349 102.685Z" fill="black"/>
<path d="M109.448 99.9802C109.448 99.9802 107.87 105.616 109.448 113.394C111.026 121.172 109.561 122.862 109.899 123.201C110.237 123.539 110.349 123.426 110.349 123.764C110.349 124.102 110.688 125.681 110.349 126.244C110.011 126.808 110.011 144.73 111.026 145.181C112.04 145.632 114.97 146.759 115.534 145.181C116.097 143.603 115.646 132.218 115.872 131.655C116.097 131.091 116.097 129.738 116.097 129.4C116.097 129.062 116.773 125.23 116.886 124.215C116.999 123.201 117.337 121.172 117.337 121.172C117.337 121.172 117.111 113.168 117.788 110.801C118.464 108.434 118.689 108.209 118.689 108.209L124.099 122.299C124.099 122.299 123.648 123.764 124.099 124.215C124.549 124.666 123.986 124.553 124.437 125.342C124.888 126.131 125.338 126.357 125.338 126.808C125.338 127.259 124.888 127.259 125.113 127.597C125.338 127.935 125.676 129.175 125.676 129.175L125.113 130.527C125.113 130.527 125.451 133.346 125.902 135.036C126.353 136.727 126.353 143.603 126.916 143.716C127.48 143.829 131.875 145.068 131.875 142.476C131.875 139.883 131.537 128.611 131.537 128.611C131.537 128.611 130.861 126.92 130.861 126.47C130.861 126.019 130.748 125.793 130.973 125.568C131.199 125.342 131.424 124.891 131.086 124.553C130.748 124.215 130.861 123.764 130.861 123.313C130.841 122.707 130.766 122.103 130.635 121.51C130.523 121.059 128.381 106.969 128.381 106.969C128.381 106.969 128.832 105.278 128.381 105.165C127.93 105.053 127.93 104.151 127.93 103.7C127.93 103.249 129.057 97.613 127.705 97.613C126.353 97.613 109.448 99.9802 109.448 99.9802Z" fill="#2F2E41"/>
<path d="M94.5717 93.217L92.9939 94.0061C92.9939 94.0061 87.359 97.0496 89.8383 98.7404C92.3177 100.431 94.7971 96.3732 94.7971 96.3732L97.1637 94.5697L94.5717 93.217Z" fill="#FFB9B9"/>
<path d="M116.548 62.3315C116.548 62.3315 116.097 67.5167 113.73 68.6439C111.364 69.7711 112.941 78.2251 112.941 78.2251L116.21 81.3813L121.957 79.6905L122.634 75.858L123.197 71.9128L121.845 69.8838C121.845 69.8838 120.154 69.4329 120.83 64.9241C121.507 60.4153 116.548 62.3315 116.548 62.3315Z" fill="#FFB9B9"/>
<path d="M113.167 70.4473C113.167 70.4473 115.759 79.0141 117.562 79.0141C119.365 79.0141 120.38 76.9851 120.605 74.5052C120.83 72.0254 122.295 69.3201 122.295 69.3201L125.789 72.4763C125.789 72.4763 128.607 97.3875 128.381 98.0639C128.156 98.7402 119.365 99.5293 115.872 100.544C112.378 101.558 108.884 100.769 108.884 100.206C108.884 99.7036 110.672 95.357 109.312 92.1824C108.815 91.0515 108.479 89.8566 108.313 88.6325C108.103 86.9613 107.907 84.939 108.095 84.3119C108.433 83.1847 110.237 71.2363 110.237 71.2363L113.167 70.4473Z" fill="#6CB5FD"/>
<path d="M115.075 67.3371C115.075 67.3371 113.054 68.4183 112.153 68.8692C111.251 69.3201 105.729 70.6727 105.616 71.3491C105.503 72.0254 106.405 81.4939 105.954 82.5084C105.503 83.5229 100.995 92.5406 100.995 92.5406L100.77 94.4568C100.77 94.4568 93.3319 103.362 94.2335 104.376C95.1351 105.391 98.5161 101.22 98.5161 101.22C98.5161 101.22 106.067 89.159 106.292 88.7081C106.518 88.2572 111.138 79.9158 111.815 79.6904C112.491 79.465 114.069 69.9964 114.294 69.5455C114.519 69.0947 115.405 67.1577 115.075 67.3371Z" fill="#575A89"/>
<path d="M106.179 71.2365H105.503C105.503 71.2365 103.024 80.705 102.348 81.9449C101.671 83.1848 101.559 85.2138 101.446 85.552C101.333 85.8901 100.883 85.7774 100.77 86.5665C100.657 87.3555 99.5302 88.37 98.6286 88.8209C97.727 89.2718 93.6699 93.1043 93.7826 93.217C93.8953 93.3297 95.135 97.2749 95.9239 97.2749C96.7128 97.2749 99.8683 93.4424 100.206 93.4424C100.545 93.4424 102.01 92.0898 102.235 91.9771C102.46 91.8644 108.208 81.2686 107.983 78.676C107.757 76.0834 106.179 71.2365 106.179 71.2365Z" fill="#575A89"/>
<path d="M134.299 100.439L135.688 101.528C135.688 101.528 140.6 105.637 137.833 106.798C135.066 107.958 133.448 103.487 133.448 103.487L131.489 101.246L134.299 100.439Z" fill="#FFB9B9"/>
<path d="M120.692 67.4708C120.692 67.4708 122.183 68.193 122.859 68.7566C123.535 69.3202 128.719 70.7856 128.719 71.2364C128.719 71.6873 128.156 78.676 128.156 78.676L128.944 91.0753C128.944 91.0753 130.071 105.053 130.297 105.391C130.522 105.729 130.86 107.533 130.297 107.533C129.733 107.533 126.916 104.376 127.029 102.798C127.141 101.22 127.93 97.6131 127.141 96.7113C126.352 95.8096 122.633 80.705 122.633 79.8032C122.633 78.9015 121.056 69.8838 121.168 69.6583C121.281 69.4329 120.692 67.4708 120.692 67.4708Z" fill="#575A89"/>
<path d="M127.029 71.1237L128.72 71.2364L132.889 88.2572C132.889 88.2572 133.228 90.3989 133.34 90.6243C133.453 90.8498 135.143 100.656 134.467 100.995C133.791 101.333 131.537 102.573 131.424 101.784C131.312 100.995 130.185 96.5985 129.058 95.584C127.931 94.5695 126.804 77.0978 126.804 77.0978L127.029 71.1237Z" fill="#575A89"/>
<path d="M120.267 65.3749C122.819 65.3749 124.887 63.3058 124.887 60.7534C124.887 58.201 122.819 56.1318 120.267 56.1318C117.715 56.1318 115.646 58.201 115.646 60.7534C115.646 63.3058 117.715 65.3749 120.267 65.3749Z" fill="#FFB9B9"/>
<path d="M117.042 61.0909C117.336 60.9398 117.723 61.082 117.995 61.4108C118.138 60.7235 118.44 60.0793 118.876 59.5294C119.313 58.9794 119.871 58.539 120.508 58.243C121.144 57.947 121.841 57.8038 122.543 57.8246C123.244 57.8454 123.932 58.0298 124.549 58.363V57.8932C124.549 56.858 124.138 55.8653 123.406 55.1333C122.675 54.4013 121.682 53.9901 120.647 53.9901H119.709C118.746 53.9901 117.793 54.1798 116.904 54.5483C116.014 54.9168 115.206 55.4569 114.525 56.1378C113.844 56.8187 113.304 57.627 112.936 58.5167C112.568 59.4063 112.378 60.3598 112.378 61.3227V62.6314C112.378 63.846 112.714 65.0368 113.349 66.0718C113.985 67.1068 114.894 67.9456 115.977 68.495L120.197 66.2605C119.586 65.916 119.064 65.4337 118.671 64.8519C118.279 64.2701 118.028 63.6048 117.938 62.9089C117.581 63.0649 117.103 62.8125 116.854 62.3281C116.598 61.8297 116.682 61.2758 117.042 61.0909Z" fill="#2F2E41"/>
<path d="M83.1353 99.9587L85.4313 102.552L90.4504 97.6309" stroke="#57B894" stroke-width="4" stroke-miterlimit="10"/>
</g>
<path d="M21.9272 245H18.8477L16.9966 241.937C16.8582 241.705 16.7254 241.497 16.5981 241.314C16.4709 241.132 16.3408 240.977 16.208 240.85C16.0807 240.717 15.9451 240.617 15.8013 240.551C15.6629 240.479 15.5107 240.443 15.3447 240.443H14.6226V245H11.9414V233.097H16.1914C19.0801 233.097 20.5244 234.176 20.5244 236.334C20.5244 236.749 20.4608 237.134 20.3335 237.488C20.2062 237.836 20.0264 238.152 19.7939 238.434C19.5615 238.716 19.2793 238.96 18.9473 239.165C18.6208 239.369 18.2555 239.53 17.8516 239.646V239.679C18.0286 239.735 18.2002 239.826 18.3662 239.953C18.5322 240.075 18.6927 240.219 18.8477 240.385C19.0026 240.551 19.1493 240.731 19.2876 240.924C19.4315 241.112 19.5615 241.298 19.6777 241.48L21.9272 245ZM14.6226 235.105V238.417H15.7847C16.3602 238.417 16.8223 238.251 17.1709 237.919C17.5251 237.582 17.7021 237.164 17.7021 236.666C17.7021 235.626 17.0796 235.105 15.8345 235.105H14.6226ZM29.9956 241.497H24.4507C24.5392 242.731 25.3167 243.348 26.7832 243.348C27.7184 243.348 28.5402 243.127 29.2485 242.684V244.577C28.4627 244.997 27.4417 245.208 26.1855 245.208C24.8132 245.208 23.7479 244.828 22.9897 244.07C22.2316 243.307 21.8525 242.244 21.8525 240.883C21.8525 239.472 22.262 238.354 23.0811 237.529C23.9001 236.705 24.9072 236.292 26.1025 236.292C27.3421 236.292 28.2995 236.66 28.9746 237.396C29.6553 238.132 29.9956 239.131 29.9956 240.393V241.497ZM27.5635 239.887C27.5635 238.669 27.071 238.061 26.0859 238.061C25.6654 238.061 25.3001 238.235 24.9902 238.583C24.6859 238.932 24.5005 239.367 24.4341 239.887H27.5635ZM38.6284 245H36.1465V243.78H36.1133C35.5433 244.732 34.6994 245.208 33.5815 245.208C32.757 245.208 32.1068 244.975 31.6309 244.51C31.1605 244.04 30.9253 243.415 30.9253 242.634C30.9253 240.985 31.902 240.033 33.8555 239.779L36.1631 239.472C36.1631 238.542 35.6595 238.077 34.6523 238.077C33.6396 238.077 32.6768 238.379 31.7637 238.982V237.006C32.1289 236.818 32.627 236.652 33.2578 236.508C33.8942 236.364 34.4725 236.292 34.9927 236.292C37.4165 236.292 38.6284 237.502 38.6284 239.92V245ZM36.1631 241.547V240.974L34.6191 241.173C33.7669 241.284 33.3408 241.669 33.3408 242.327C33.3408 242.626 33.4432 242.872 33.6479 243.066C33.8582 243.254 34.1405 243.348 34.4946 243.348C34.9871 243.348 35.3883 243.179 35.6982 242.842C36.0081 242.499 36.1631 242.067 36.1631 241.547ZM42.0317 235.155C41.589 235.155 41.2266 235.025 40.9443 234.765C40.6621 234.5 40.521 234.176 40.521 233.794C40.521 233.401 40.6621 233.08 40.9443 232.831C41.2266 232.582 41.589 232.458 42.0317 232.458C42.48 232.458 42.8424 232.582 43.1191 232.831C43.4014 233.08 43.5425 233.401 43.5425 233.794C43.5425 234.192 43.4014 234.519 43.1191 234.773C42.8424 235.028 42.48 235.155 42.0317 235.155ZM43.3267 244.851C43.3267 246.107 43.0195 247.111 42.4053 247.864C41.791 248.616 40.9056 248.993 39.749 248.993C39.3672 248.993 38.9494 248.91 38.4956 248.744V246.685C38.8608 246.89 39.1846 246.992 39.4668 246.992C40.2913 246.992 40.7036 246.345 40.7036 245.05V236.5H43.3267V244.851ZM53.6113 245H50.9966V243.705H50.9551C50.3076 244.707 49.4416 245.208 48.3569 245.208C46.3869 245.208 45.4019 244.015 45.4019 241.63V236.5H48.0166V241.397C48.0166 242.598 48.4925 243.199 49.4443 243.199C49.9147 243.199 50.291 243.035 50.5732 242.709C50.8555 242.377 50.9966 241.929 50.9966 241.364V236.5H53.6113V245ZM55.2715 244.776V242.651C55.7031 242.911 56.132 243.105 56.5581 243.232C56.9897 243.359 57.3965 243.423 57.7783 243.423C58.2432 243.423 58.6084 243.359 58.874 243.232C59.1452 243.105 59.2808 242.911 59.2808 242.651C59.2808 242.485 59.2199 242.347 59.0981 242.236C58.9764 242.125 58.8187 242.028 58.625 241.945C58.4368 241.862 58.2293 241.788 58.0024 241.721C57.7756 241.655 57.557 241.58 57.3467 241.497C57.0091 241.37 56.7103 241.234 56.4502 241.09C56.1956 240.941 55.9798 240.769 55.8027 240.576C55.6312 240.382 55.4984 240.158 55.4043 239.903C55.3158 239.649 55.2715 239.347 55.2715 238.999C55.2715 238.523 55.3739 238.113 55.5786 237.77C55.7889 237.427 56.0656 237.147 56.4087 236.932C56.7573 236.71 57.153 236.55 57.5957 236.45C58.0439 236.345 58.5088 236.292 58.9902 236.292C59.3665 236.292 59.7484 236.323 60.1357 236.384C60.5231 236.439 60.9049 236.522 61.2812 236.633V238.658C60.9492 238.465 60.5923 238.321 60.2104 238.227C59.8341 238.127 59.4634 238.077 59.0981 238.077C58.9266 238.077 58.7633 238.094 58.6084 238.127C58.459 238.155 58.3262 238.199 58.21 238.26C58.0938 238.315 58.0024 238.39 57.936 238.484C57.8696 238.572 57.8364 238.675 57.8364 238.791C57.8364 238.946 57.8862 239.079 57.9858 239.189C58.0854 239.3 58.2155 239.397 58.376 239.48C58.5365 239.557 58.7135 239.629 58.9072 239.696C59.1064 239.757 59.3029 239.82 59.4966 239.887C59.8452 240.008 60.1606 240.141 60.4429 240.285C60.7251 240.429 60.9658 240.598 61.165 240.792C61.3698 240.985 61.5247 241.212 61.6299 241.472C61.7406 241.732 61.7959 242.042 61.7959 242.402C61.7959 242.905 61.6852 243.337 61.4639 243.697C61.248 244.051 60.9575 244.341 60.5923 244.568C60.2326 244.79 59.8148 244.95 59.3389 245.05C58.8685 245.155 58.3787 245.208 57.8696 245.208C56.9344 245.208 56.0684 245.064 55.2715 244.776ZM68.4531 244.9C68.0658 245.105 67.4819 245.208 66.7017 245.208C64.8534 245.208 63.9292 244.247 63.9292 242.327V238.434H62.5513V236.5H63.9292V234.666L66.5439 233.918V236.5H68.4531V238.434H66.5439V241.871C66.5439 242.756 66.8953 243.199 67.5981 243.199C67.8748 243.199 68.1598 243.118 68.4531 242.958V244.9ZM77.5093 241.497H71.9644C72.0529 242.731 72.8304 243.348 74.2969 243.348C75.2321 243.348 76.0539 243.127 76.7622 242.684V244.577C75.9764 244.997 74.9554 245.208 73.6992 245.208C72.3268 245.208 71.2616 244.828 70.5034 244.07C69.7453 243.307 69.3662 242.244 69.3662 240.883C69.3662 239.472 69.7757 238.354 70.5947 237.529C71.4137 236.705 72.4209 236.292 73.6162 236.292C74.8558 236.292 75.8132 236.66 76.4883 237.396C77.1689 238.132 77.5093 239.131 77.5093 240.393V241.497ZM75.0771 239.887C75.0771 238.669 74.5846 238.061 73.5996 238.061C73.179 238.061 72.8138 238.235 72.5039 238.583C72.1995 238.932 72.0142 239.367 71.9478 239.887H75.0771ZM92.1021 244.029C92.1021 245.606 91.6455 246.826 90.7324 247.689C89.8193 248.558 88.4967 248.993 86.7646 248.993C85.6191 248.993 84.7116 248.829 84.042 248.503V246.295C84.9163 246.804 85.799 247.059 86.6899 247.059C87.5754 247.059 88.2616 246.823 88.7485 246.353C89.2355 245.888 89.479 245.255 89.479 244.452V243.78H89.4458C88.8481 244.732 87.9655 245.208 86.7979 245.208C85.7132 245.208 84.8527 244.826 84.2163 244.062C83.5799 243.298 83.2617 242.275 83.2617 240.991C83.2617 239.552 83.6159 238.409 84.3242 237.562C85.0326 236.716 85.965 236.292 87.1216 236.292C88.1564 236.292 88.9312 236.691 89.4458 237.488H89.479V236.5H92.1021V244.029ZM89.5122 240.916V240.244C89.5122 239.707 89.3517 239.25 89.0308 238.874C88.7153 238.492 88.3031 238.301 87.7939 238.301C87.2129 238.301 86.7563 238.528 86.4243 238.982C86.0923 239.436 85.9263 240.075 85.9263 240.899C85.9263 241.608 86.084 242.169 86.3994 242.584C86.7148 242.994 87.1465 243.199 87.6943 243.199C88.2367 243.199 88.6738 242.991 89.0059 242.576C89.3434 242.156 89.5122 241.602 89.5122 240.916ZM101.93 241.497H96.3853C96.4738 242.731 97.2513 243.348 98.7178 243.348C99.653 243.348 100.475 243.127 101.183 242.684V244.577C100.397 244.997 99.3763 245.208 98.1201 245.208C96.7477 245.208 95.6825 244.828 94.9243 244.07C94.1662 243.307 93.7871 242.244 93.7871 240.883C93.7871 239.472 94.1966 238.354 95.0156 237.529C95.8346 236.705 96.8418 236.292 98.0371 236.292C99.2767 236.292 100.234 236.66 100.909 237.396C101.59 238.132 101.93 239.131 101.93 240.393V241.497ZM99.498 239.887C99.498 238.669 99.0055 238.061 98.0205 238.061C97.5999 238.061 97.2347 238.235 96.9248 238.583C96.6204 238.932 96.4351 239.367 96.3687 239.887H99.498ZM109.036 238.866C108.72 238.694 108.352 238.608 107.932 238.608C107.362 238.608 106.916 238.819 106.595 239.239C106.274 239.654 106.114 240.222 106.114 240.941V245H103.491V236.5H106.114V238.077H106.147C106.562 236.926 107.309 236.351 108.388 236.351C108.665 236.351 108.881 236.384 109.036 236.45V238.866ZM117.336 245H114.854V243.78H114.821C114.251 244.732 113.407 245.208 112.29 245.208C111.465 245.208 110.815 244.975 110.339 244.51C109.868 244.04 109.633 243.415 109.633 242.634C109.633 240.985 110.61 240.033 112.563 239.779L114.871 239.472C114.871 238.542 114.368 238.077 113.36 238.077C112.348 238.077 111.385 238.379 110.472 238.982V237.006C110.837 236.818 111.335 236.652 111.966 236.508C112.602 236.364 113.181 236.292 113.701 236.292C116.125 236.292 117.336 237.502 117.336 239.92V245ZM114.871 241.547V240.974L113.327 241.173C112.475 241.284 112.049 241.669 112.049 242.327C112.049 242.626 112.151 242.872 112.356 243.066C112.566 243.254 112.848 243.348 113.203 243.348C113.695 243.348 114.096 243.179 114.406 242.842C114.716 242.499 114.871 242.067 114.871 241.547ZM122.035 245H119.412V232.416H122.035V245ZM137.258 245H134.635V243.83H134.602C134.004 244.748 133.127 245.208 131.971 245.208C130.908 245.208 130.053 244.834 129.406 244.087C128.758 243.334 128.435 242.286 128.435 240.941C128.435 239.535 128.792 238.409 129.505 237.562C130.219 236.716 131.154 236.292 132.311 236.292C133.407 236.292 134.17 236.685 134.602 237.471H134.635V232.416H137.258V245ZM134.685 240.866V240.227C134.685 239.674 134.525 239.214 134.204 238.849C133.883 238.484 133.465 238.301 132.95 238.301C132.369 238.301 131.915 238.531 131.589 238.99C131.262 239.444 131.099 240.069 131.099 240.866C131.099 241.613 131.257 242.189 131.572 242.593C131.888 242.997 132.325 243.199 132.884 243.199C133.415 243.199 133.847 242.986 134.179 242.56C134.516 242.133 134.685 241.569 134.685 240.866ZM147.103 241.497H141.558C141.647 242.731 142.424 243.348 143.891 243.348C144.826 243.348 145.648 243.127 146.356 242.684V244.577C145.57 244.997 144.549 245.208 143.293 245.208C141.921 245.208 140.855 244.828 140.097 244.07C139.339 243.307 138.96 242.244 138.96 240.883C138.96 239.472 139.369 238.354 140.188 237.529C141.007 236.705 142.015 236.292 143.21 236.292C144.45 236.292 145.407 236.66 146.082 237.396C146.763 238.132 147.103 239.131 147.103 240.393V241.497ZM144.671 239.887C144.671 238.669 144.178 238.061 143.193 238.061C142.773 238.061 142.408 238.235 142.098 238.583C141.793 238.932 141.608 239.367 141.542 239.887H144.671ZM156.018 244.012H155.985V248.91H153.362V236.5H155.985V237.778H156.018C156.666 236.788 157.576 236.292 158.749 236.292C159.85 236.292 160.7 236.672 161.297 237.43C161.901 238.182 162.202 239.209 162.202 240.509C162.202 241.926 161.851 243.063 161.148 243.921C160.451 244.779 159.521 245.208 158.359 245.208C157.335 245.208 156.555 244.809 156.018 244.012ZM155.943 240.526V241.207C155.943 241.793 156.098 242.272 156.408 242.643C156.718 243.013 157.125 243.199 157.628 243.199C158.226 243.199 158.688 242.969 159.015 242.51C159.347 242.045 159.513 241.389 159.513 240.542C159.513 239.048 158.932 238.301 157.77 238.301C157.233 238.301 156.793 238.506 156.45 238.916C156.112 239.319 155.943 239.856 155.943 240.526ZM170.81 245H168.328V243.78H168.295C167.725 244.732 166.881 245.208 165.763 245.208C164.939 245.208 164.288 244.975 163.812 244.51C163.342 244.04 163.107 243.415 163.107 242.634C163.107 240.985 164.084 240.033 166.037 239.779L168.345 239.472C168.345 238.542 167.841 238.077 166.834 238.077C165.821 238.077 164.858 238.379 163.945 238.982V237.006C164.311 236.818 164.809 236.652 165.439 236.508C166.076 236.364 166.654 236.292 167.174 236.292C169.598 236.292 170.81 237.502 170.81 239.92V245ZM168.345 241.547V240.974L166.801 241.173C165.949 241.284 165.522 241.669 165.522 242.327C165.522 242.626 165.625 242.872 165.83 243.066C166.04 243.254 166.322 243.348 166.676 243.348C167.169 243.348 167.57 243.179 167.88 242.842C168.19 242.499 168.345 242.067 168.345 241.547ZM170.03 232.474L167.432 235.155H165.539L167.697 232.474H170.03ZM181.219 244.029C181.219 245.606 180.763 246.826 179.85 247.689C178.937 248.558 177.614 248.993 175.882 248.993C174.736 248.993 173.829 248.829 173.159 248.503V246.295C174.034 246.804 174.916 247.059 175.807 247.059C176.693 247.059 177.379 246.823 177.866 246.353C178.353 245.888 178.596 245.255 178.596 244.452V243.78H178.563C177.965 244.732 177.083 245.208 175.915 245.208C174.83 245.208 173.97 244.826 173.333 244.062C172.697 243.298 172.379 242.275 172.379 240.991C172.379 239.552 172.733 238.409 173.441 237.562C174.15 236.716 175.082 236.292 176.239 236.292C177.274 236.292 178.048 236.691 178.563 237.488H178.596V236.5H181.219V244.029ZM178.629 240.916V240.244C178.629 239.707 178.469 239.25 178.148 238.874C177.833 238.492 177.42 238.301 176.911 238.301C176.33 238.301 175.874 238.528 175.542 238.982C175.209 239.436 175.043 240.075 175.043 240.899C175.043 241.608 175.201 242.169 175.517 242.584C175.832 242.994 176.264 243.199 176.812 243.199C177.354 243.199 177.791 242.991 178.123 242.576C178.461 242.156 178.629 241.602 178.629 240.916ZM184.739 235.155C184.296 235.155 183.934 235.025 183.651 234.765C183.369 234.5 183.228 234.176 183.228 233.794C183.228 233.401 183.369 233.08 183.651 232.831C183.934 232.582 184.296 232.458 184.739 232.458C185.187 232.458 185.549 232.582 185.826 232.831C186.108 233.08 186.25 233.401 186.25 233.794C186.25 234.192 186.108 234.519 185.826 234.773C185.549 235.028 185.187 235.155 184.739 235.155ZM186.034 245H183.411V236.5H186.034V245ZM196.451 245H193.836V240.277C193.836 238.96 193.366 238.301 192.425 238.301C191.972 238.301 191.598 238.476 191.305 238.824C191.011 239.173 190.865 239.616 190.865 240.152V245H188.242V236.5H190.865V237.845H190.898C191.523 236.81 192.434 236.292 193.629 236.292C195.51 236.292 196.451 237.46 196.451 239.795V245ZM205.607 245H203.125V243.78H203.092C202.522 244.732 201.678 245.208 200.56 245.208C199.736 245.208 199.085 244.975 198.609 244.51C198.139 244.04 197.904 243.415 197.904 242.634C197.904 240.985 198.881 240.033 200.834 239.779L203.142 239.472C203.142 238.542 202.638 238.077 201.631 238.077C200.618 238.077 199.655 238.379 198.742 238.982V237.006C199.107 236.818 199.605 236.652 200.236 236.508C200.873 236.364 201.451 236.292 201.971 236.292C204.395 236.292 205.607 237.502 205.607 239.92V245ZM203.142 241.547V240.974L201.598 241.173C200.745 241.284 200.319 241.669 200.319 242.327C200.319 242.626 200.422 242.872 200.626 243.066C200.837 243.254 201.119 243.348 201.473 243.348C201.966 243.348 202.367 243.179 202.677 242.842C202.987 242.499 203.142 242.067 203.142 241.547ZM207.126 244.776V242.651C207.558 242.911 207.986 243.105 208.413 243.232C208.844 243.359 209.251 243.423 209.633 243.423C210.098 243.423 210.463 243.359 210.729 243.232C211 243.105 211.135 242.911 211.135 242.651C211.135 242.485 211.074 242.347 210.953 242.236C210.831 242.125 210.673 242.028 210.479 241.945C210.291 241.862 210.084 241.788 209.857 241.721C209.63 241.655 209.411 241.58 209.201 241.497C208.864 241.37 208.565 241.234 208.305 241.09C208.05 240.941 207.834 240.769 207.657 240.576C207.486 240.382 207.353 240.158 207.259 239.903C207.17 239.649 207.126 239.347 207.126 238.999C207.126 238.523 207.228 238.113 207.433 237.77C207.643 237.427 207.92 237.147 208.263 236.932C208.612 236.71 209.007 236.55 209.45 236.45C209.898 236.345 210.363 236.292 210.845 236.292C211.221 236.292 211.603 236.323 211.99 236.384C212.378 236.439 212.759 236.522 213.136 236.633V238.658C212.804 238.465 212.447 238.321 212.065 238.227C211.689 238.127 211.318 238.077 210.953 238.077C210.781 238.077 210.618 238.094 210.463 238.127C210.313 238.155 210.181 238.199 210.064 238.26C209.948 238.315 209.857 238.39 209.791 238.484C209.724 238.572 209.691 238.675 209.691 238.791C209.691 238.946 209.741 239.079 209.84 239.189C209.94 239.3 210.07 239.397 210.23 239.48C210.391 239.557 210.568 239.629 210.762 239.696C210.961 239.757 211.157 239.82 211.351 239.887C211.7 240.008 212.015 240.141 212.297 240.285C212.58 240.429 212.82 240.598 213.02 240.792C213.224 240.985 213.379 241.212 213.484 241.472C213.595 241.732 213.65 242.042 213.65 242.402C213.65 242.905 213.54 243.337 213.318 243.697C213.103 244.051 212.812 244.341 212.447 244.568C212.087 244.79 211.669 244.95 211.193 245.05C210.723 245.155 210.233 245.208 209.724 245.208C208.789 245.208 207.923 245.064 207.126 244.776ZM216.34 245.208C215.908 245.208 215.549 245.075 215.261 244.809C214.973 244.543 214.829 244.217 214.829 243.83C214.829 243.431 214.976 243.105 215.269 242.85C215.568 242.596 215.939 242.468 216.381 242.468C216.83 242.468 217.195 242.598 217.477 242.858C217.765 243.113 217.909 243.437 217.909 243.83C217.909 244.234 217.762 244.566 217.469 244.826C217.181 245.08 216.805 245.208 216.34 245.208ZM231.622 235.28H227.421V238.202H231.281V240.376H227.421V245H224.74V233.097H231.622V235.28ZM239.889 245H237.407V243.78H237.374C236.804 244.732 235.96 245.208 234.842 245.208C234.018 245.208 233.368 244.975 232.892 244.51C232.421 244.04 232.186 243.415 232.186 242.634C232.186 240.985 233.163 240.033 235.116 239.779L237.424 239.472C237.424 238.542 236.92 238.077 235.913 238.077C234.9 238.077 233.938 238.379 233.024 238.982V237.006C233.39 236.818 233.888 236.652 234.519 236.508C235.155 236.364 235.733 236.292 236.253 236.292C238.677 236.292 239.889 237.502 239.889 239.92V245ZM237.424 241.547V240.974L235.88 241.173C235.028 241.284 234.602 241.669 234.602 242.327C234.602 242.626 234.704 242.872 234.909 243.066C235.119 243.254 235.401 243.348 235.755 243.348C236.248 243.348 236.649 243.179 236.959 242.842C237.269 242.499 237.424 242.067 237.424 241.547ZM248.696 245H241.068V243.913L245.334 238.434H241.491V236.5H248.663V237.795L244.621 243.066H248.696V245ZM257.752 241.497H252.208C252.296 242.731 253.074 243.348 254.54 243.348C255.475 243.348 256.297 243.127 257.005 242.684V244.577C256.22 244.997 255.199 245.208 253.942 245.208C252.57 245.208 251.505 244.828 250.747 244.07C249.988 243.307 249.609 242.244 249.609 240.883C249.609 239.472 250.019 238.354 250.838 237.529C251.657 236.705 252.664 236.292 253.859 236.292C255.099 236.292 256.056 236.66 256.731 237.396C257.412 238.132 257.752 239.131 257.752 240.393V241.497ZM255.32 239.887C255.32 238.669 254.828 238.061 253.843 238.061C253.422 238.061 253.057 238.235 252.747 238.583C252.443 238.932 252.257 239.367 252.191 239.887H255.32ZM267.522 245H264.908V240.277C264.908 238.96 264.437 238.301 263.497 238.301C263.043 238.301 262.669 238.476 262.376 238.824C262.083 239.173 261.936 239.616 261.936 240.152V245H259.313V236.5H261.936V237.845H261.969C262.595 236.81 263.505 236.292 264.7 236.292C266.582 236.292 267.522 237.46 267.522 239.795V245ZM277.923 245H275.3V243.83H275.267C274.669 244.748 273.792 245.208 272.636 245.208C271.573 245.208 270.718 244.834 270.071 244.087C269.423 243.334 269.1 242.286 269.1 240.941C269.1 239.535 269.457 238.409 270.17 237.562C270.884 236.716 271.819 236.292 272.976 236.292C274.072 236.292 274.835 236.685 275.267 237.471H275.3V232.416H277.923V245ZM275.35 240.866V240.227C275.35 239.674 275.19 239.214 274.869 238.849C274.548 238.484 274.13 238.301 273.615 238.301C273.034 238.301 272.58 238.531 272.254 238.99C271.927 239.444 271.764 240.069 271.764 240.866C271.764 241.613 271.922 242.189 272.237 242.593C272.553 242.997 272.99 243.199 273.549 243.199C274.08 243.199 274.512 242.986 274.844 242.56C275.181 242.133 275.35 241.569 275.35 240.866ZM284.182 245.208C282.765 245.208 281.65 244.812 280.837 244.021C280.029 243.224 279.625 242.145 279.625 240.783C279.625 239.378 280.046 238.279 280.887 237.488C281.728 236.691 282.865 236.292 284.298 236.292C285.709 236.292 286.816 236.691 287.619 237.488C288.421 238.279 288.822 239.328 288.822 240.634C288.822 242.045 288.407 243.16 287.577 243.979C286.753 244.798 285.621 245.208 284.182 245.208ZM284.249 238.301C283.629 238.301 283.147 238.514 282.804 238.94C282.461 239.367 282.29 239.97 282.29 240.75C282.29 242.382 282.948 243.199 284.265 243.199C285.521 243.199 286.149 242.36 286.149 240.684C286.149 239.095 285.516 238.301 284.249 238.301ZM21.3794 267.693C20.7873 268.036 19.9323 268.208 18.8145 268.208C17.5085 268.208 16.4515 267.812 15.6436 267.021C14.8356 266.229 14.4316 265.208 14.4316 263.958C14.4316 262.513 14.8633 261.376 15.7266 260.546C16.5954 259.71 17.7547 259.292 19.2046 259.292C20.2062 259.292 20.9312 259.425 21.3794 259.691V261.916C20.8315 261.506 20.2201 261.301 19.5449 261.301C18.7923 261.301 18.1947 261.523 17.752 261.965C17.3148 262.403 17.0962 263.008 17.0962 263.783C17.0962 264.536 17.3065 265.128 17.7271 265.56C18.1476 265.986 18.7259 266.199 19.4619 266.199C20.1149 266.199 20.7541 265.994 21.3794 265.584V267.693ZM27.1567 268.208C25.7401 268.208 24.625 267.812 23.8115 267.021C23.0036 266.224 22.5996 265.145 22.5996 263.783C22.5996 262.378 23.0202 261.279 23.8613 260.488C24.7025 259.691 25.8397 259.292 27.2729 259.292C28.6841 259.292 29.7909 259.691 30.5933 260.488C31.3957 261.279 31.7969 262.328 31.7969 263.634C31.7969 265.045 31.3818 266.16 30.5518 266.979C29.7272 267.798 28.5955 268.208 27.1567 268.208ZM27.2231 261.301C26.6034 261.301 26.1219 261.514 25.7788 261.94C25.4357 262.367 25.2642 262.97 25.2642 263.75C25.2642 265.382 25.9227 266.199 27.2397 266.199C28.4959 266.199 29.124 265.36 29.124 263.684C29.124 262.095 28.4904 261.301 27.2231 261.301ZM46.9956 268H44.3809V263.152C44.3809 261.918 43.9271 261.301 43.0195 261.301C42.5879 261.301 42.2365 261.487 41.9653 261.857C41.6942 262.228 41.5586 262.69 41.5586 263.244V268H38.9355V263.103C38.9355 261.902 38.4901 261.301 37.5991 261.301C37.1509 261.301 36.7912 261.478 36.52 261.833C36.2544 262.187 36.1216 262.668 36.1216 263.277V268H33.4985V259.5H36.1216V260.828H36.1548C36.4259 260.374 36.805 260.006 37.292 259.724C37.7845 259.436 38.3213 259.292 38.9023 259.292C40.1032 259.292 40.925 259.821 41.3677 260.878C42.0151 259.821 42.967 259.292 44.2231 259.292C46.0715 259.292 46.9956 260.432 46.9956 262.712V268ZM62.0864 271.91H59.4634V266.83H59.4302C58.8381 267.748 57.9665 268.208 56.8154 268.208C55.7474 268.208 54.8869 267.837 54.2339 267.095C53.5864 266.348 53.2627 265.302 53.2627 263.958C53.2627 262.541 53.6196 261.409 54.3335 260.562C55.0474 259.716 55.9771 259.292 57.1226 259.292C58.1629 259.292 58.9321 259.691 59.4302 260.488H59.4634V259.5H62.0864V271.91ZM59.5132 263.941V263.26C59.5132 262.707 59.3527 262.242 59.0317 261.866C58.7108 261.489 58.2985 261.301 57.7949 261.301C57.2139 261.301 56.7573 261.531 56.4253 261.99C56.0933 262.444 55.9272 263.075 55.9272 263.883C55.9272 264.608 56.0877 265.175 56.4087 265.584C56.7352 265.994 57.1585 266.199 57.6787 266.199C58.2321 266.199 58.6748 265.991 59.0068 265.576C59.3444 265.161 59.5132 264.616 59.5132 263.941ZM72.3711 268H69.7563V266.705H69.7148C69.0674 267.707 68.2013 268.208 67.1167 268.208C65.1466 268.208 64.1616 267.015 64.1616 264.63V259.5H66.7764V264.397C66.7764 265.598 67.2523 266.199 68.2041 266.199C68.6745 266.199 69.0508 266.035 69.333 265.709C69.6152 265.377 69.7563 264.929 69.7563 264.364V259.5H72.3711V268ZM82.2241 264.497H76.6792C76.7677 265.731 77.5452 266.348 79.0117 266.348C79.9469 266.348 80.7687 266.127 81.4771 265.684V267.577C80.6912 267.997 79.6702 268.208 78.4141 268.208C77.0417 268.208 75.9764 267.828 75.2183 267.07C74.4601 266.307 74.0811 265.244 74.0811 263.883C74.0811 262.472 74.4906 261.354 75.3096 260.529C76.1286 259.705 77.1357 259.292 78.3311 259.292C79.5706 259.292 80.528 259.66 81.2031 260.396C81.8838 261.132 82.2241 262.131 82.2241 263.393V264.497ZM79.792 262.887C79.792 261.669 79.2995 261.061 78.3145 261.061C77.8939 261.061 77.5286 261.235 77.2188 261.583C76.9144 261.932 76.729 262.367 76.6626 262.887H79.792ZM94.0278 257.425C93.6903 257.292 93.3665 257.226 93.0566 257.226C92.2155 257.226 91.7949 257.682 91.7949 258.595V259.5H93.7373V261.434H91.7949V268H89.1802V261.434H87.7524V259.5H89.1802V258.446C89.1802 257.477 89.4956 256.697 90.1265 256.105C90.7573 255.513 91.6151 255.217 92.6997 255.217C93.231 255.217 93.6737 255.272 94.0278 255.383V257.425ZM96.3354 258.155C95.8927 258.155 95.5303 258.025 95.248 257.765C94.9658 257.5 94.8247 257.176 94.8247 256.794C94.8247 256.401 94.9658 256.08 95.248 255.831C95.5303 255.582 95.8927 255.458 96.3354 255.458C96.7837 255.458 97.1462 255.582 97.4229 255.831C97.7051 256.08 97.8462 256.401 97.8462 256.794C97.8462 257.192 97.7051 257.519 97.4229 257.773C97.1462 258.028 96.7837 258.155 96.3354 258.155ZM97.6304 268H95.0073V259.5H97.6304V268ZM108.156 271.91H105.533V266.83H105.5C104.907 267.748 104.036 268.208 102.885 268.208C101.817 268.208 100.956 267.837 100.303 267.095C99.6558 266.348 99.332 265.302 99.332 263.958C99.332 262.541 99.689 261.409 100.403 260.562C101.117 259.716 102.046 259.292 103.192 259.292C104.232 259.292 105.001 259.691 105.5 260.488H105.533V259.5H108.156V271.91ZM105.583 263.941V263.26C105.583 262.707 105.422 262.242 105.101 261.866C104.78 261.489 104.368 261.301 103.864 261.301C103.283 261.301 102.827 261.531 102.495 261.99C102.163 262.444 101.997 263.075 101.997 263.883C101.997 264.608 102.157 265.175 102.478 265.584C102.805 265.994 103.228 266.199 103.748 266.199C104.301 266.199 104.744 265.991 105.076 265.576C105.414 265.161 105.583 264.616 105.583 263.941ZM118.44 268H115.826V266.705H115.784C115.137 267.707 114.271 268.208 113.186 268.208C111.216 268.208 110.231 267.015 110.231 264.63V259.5H112.846V264.397C112.846 265.598 113.322 266.199 114.273 266.199C114.744 266.199 115.12 266.035 115.402 265.709C115.685 265.377 115.826 264.929 115.826 264.364V259.5H118.44V268ZM128.293 264.497H122.749C122.837 265.731 123.615 266.348 125.081 266.348C126.016 266.348 126.838 266.127 127.546 265.684V267.577C126.761 267.997 125.74 268.208 124.483 268.208C123.111 268.208 122.046 267.828 121.288 267.07C120.529 266.307 120.15 265.244 120.15 263.883C120.15 262.472 120.56 261.354 121.379 260.529C122.198 259.705 123.205 259.292 124.4 259.292C125.64 259.292 126.597 259.66 127.272 260.396C127.953 261.132 128.293 262.131 128.293 263.393V264.497ZM125.861 262.887C125.861 261.669 125.369 261.061 124.384 261.061C123.963 261.061 123.598 261.235 123.288 261.583C122.984 261.932 122.798 262.367 122.732 262.887H125.861ZM143.351 268H140.736V263.152C140.736 261.918 140.283 261.301 139.375 261.301C138.943 261.301 138.592 261.487 138.321 261.857C138.05 262.228 137.914 262.69 137.914 263.244V268H135.291V263.103C135.291 261.902 134.846 261.301 133.955 261.301C133.506 261.301 133.147 261.478 132.875 261.833C132.61 262.187 132.477 262.668 132.477 263.277V268H129.854V259.5H132.477V260.828H132.51C132.781 260.374 133.16 260.006 133.647 259.724C134.14 259.436 134.677 259.292 135.258 259.292C136.459 259.292 137.28 259.821 137.723 260.878C138.371 259.821 139.322 259.292 140.579 259.292C142.427 259.292 143.351 260.432 143.351 262.712V268ZM155.669 261.866C155.354 261.694 154.986 261.608 154.565 261.608C153.995 261.608 153.55 261.819 153.229 262.239C152.908 262.654 152.748 263.222 152.748 263.941V268H150.125V259.5H152.748V261.077H152.781C153.196 259.926 153.943 259.351 155.022 259.351C155.299 259.351 155.514 259.384 155.669 259.45V261.866ZM164.468 264.497H158.923C159.012 265.731 159.789 266.348 161.256 266.348C162.191 266.348 163.013 266.127 163.721 265.684V267.577C162.935 267.997 161.914 268.208 160.658 268.208C159.286 268.208 158.221 267.828 157.462 267.07C156.704 266.307 156.325 265.244 156.325 263.883C156.325 262.472 156.735 261.354 157.554 260.529C158.373 259.705 159.38 259.292 160.575 259.292C161.815 259.292 162.772 259.66 163.447 260.396C164.128 261.132 164.468 262.131 164.468 263.393V264.497ZM162.036 262.887C162.036 261.669 161.544 261.061 160.559 261.061C160.138 261.061 159.773 261.235 159.463 261.583C159.159 261.932 158.973 262.367 158.907 262.887H162.036ZM165.473 267.776V265.651C165.904 265.911 166.333 266.105 166.759 266.232C167.191 266.359 167.598 266.423 167.979 266.423C168.444 266.423 168.81 266.359 169.075 266.232C169.346 266.105 169.482 265.911 169.482 265.651C169.482 265.485 169.421 265.347 169.299 265.236C169.178 265.125 169.02 265.028 168.826 264.945C168.638 264.862 168.431 264.788 168.204 264.721C167.977 264.655 167.758 264.58 167.548 264.497C167.21 264.37 166.911 264.234 166.651 264.09C166.397 263.941 166.181 263.769 166.004 263.576C165.832 263.382 165.7 263.158 165.605 262.903C165.517 262.649 165.473 262.347 165.473 261.999C165.473 261.523 165.575 261.113 165.78 260.77C165.99 260.427 166.267 260.147 166.61 259.932C166.958 259.71 167.354 259.55 167.797 259.45C168.245 259.345 168.71 259.292 169.191 259.292C169.568 259.292 169.95 259.323 170.337 259.384C170.724 259.439 171.106 259.522 171.482 259.633V261.658C171.15 261.465 170.793 261.321 170.412 261.227C170.035 261.127 169.665 261.077 169.299 261.077C169.128 261.077 168.965 261.094 168.81 261.127C168.66 261.155 168.527 261.199 168.411 261.26C168.295 261.315 168.204 261.39 168.137 261.484C168.071 261.572 168.038 261.675 168.038 261.791C168.038 261.946 168.087 262.079 168.187 262.189C168.287 262.3 168.417 262.397 168.577 262.48C168.738 262.557 168.915 262.629 169.108 262.696C169.308 262.757 169.504 262.82 169.698 262.887C170.046 263.008 170.362 263.141 170.644 263.285C170.926 263.429 171.167 263.598 171.366 263.792C171.571 263.985 171.726 264.212 171.831 264.472C171.942 264.732 171.997 265.042 171.997 265.402C171.997 265.905 171.886 266.337 171.665 266.697C171.449 267.051 171.159 267.341 170.793 267.568C170.434 267.79 170.016 267.95 169.54 268.05C169.07 268.155 168.58 268.208 168.071 268.208C167.136 268.208 166.27 268.064 165.473 267.776ZM176.172 267.012H176.139V271.91H173.516V259.5H176.139V260.778H176.172C176.82 259.788 177.73 259.292 178.903 259.292C180.005 259.292 180.854 259.672 181.452 260.43C182.055 261.182 182.356 262.209 182.356 263.509C182.356 264.926 182.005 266.063 181.302 266.921C180.605 267.779 179.675 268.208 178.513 268.208C177.489 268.208 176.709 267.809 176.172 267.012ZM176.098 263.526V264.207C176.098 264.793 176.253 265.272 176.562 265.643C176.872 266.013 177.279 266.199 177.783 266.199C178.38 266.199 178.842 265.969 179.169 265.51C179.501 265.045 179.667 264.389 179.667 263.542C179.667 262.048 179.086 261.301 177.924 261.301C177.387 261.301 176.947 261.506 176.604 261.916C176.266 262.319 176.098 262.856 176.098 263.526ZM188.109 268.208C186.692 268.208 185.577 267.812 184.764 267.021C183.956 266.224 183.552 265.145 183.552 263.783C183.552 262.378 183.972 261.279 184.813 260.488C185.655 259.691 186.792 259.292 188.225 259.292C189.636 259.292 190.743 259.691 191.545 260.488C192.348 261.279 192.749 262.328 192.749 263.634C192.749 265.045 192.334 266.16 191.504 266.979C190.679 267.798 189.548 268.208 188.109 268.208ZM188.175 261.301C187.556 261.301 187.074 261.514 186.731 261.94C186.388 262.367 186.216 262.97 186.216 263.75C186.216 265.382 186.875 266.199 188.192 266.199C189.448 266.199 190.076 265.36 190.076 263.684C190.076 262.095 189.443 261.301 188.175 261.301ZM202.66 268H200.045V263.277C200.045 261.96 199.575 261.301 198.634 261.301C198.181 261.301 197.807 261.476 197.514 261.824C197.22 262.173 197.074 262.616 197.074 263.152V268H194.451V259.5H197.074V260.845H197.107C197.732 259.81 198.643 259.292 199.838 259.292C201.719 259.292 202.66 260.46 202.66 262.795V268ZM204.188 267.776V265.651C204.619 265.911 205.048 266.105 205.474 266.232C205.906 266.359 206.312 266.423 206.694 266.423C207.159 266.423 207.524 266.359 207.79 266.232C208.061 266.105 208.197 265.911 208.197 265.651C208.197 265.485 208.136 265.347 208.014 265.236C207.892 265.125 207.735 265.028 207.541 264.945C207.353 264.862 207.145 264.788 206.918 264.721C206.692 264.655 206.473 264.58 206.263 264.497C205.925 264.37 205.626 264.234 205.366 264.09C205.112 263.941 204.896 263.769 204.719 263.576C204.547 263.382 204.414 263.158 204.32 262.903C204.232 262.649 204.188 262.347 204.188 261.999C204.188 261.523 204.29 261.113 204.495 260.77C204.705 260.427 204.982 260.147 205.325 259.932C205.673 259.71 206.069 259.55 206.512 259.45C206.96 259.345 207.425 259.292 207.906 259.292C208.283 259.292 208.664 259.323 209.052 259.384C209.439 259.439 209.821 259.522 210.197 259.633V261.658C209.865 261.465 209.508 261.321 209.126 261.227C208.75 261.127 208.379 261.077 208.014 261.077C207.843 261.077 207.679 261.094 207.524 261.127C207.375 261.155 207.242 261.199 207.126 261.26C207.01 261.315 206.918 261.39 206.852 261.484C206.786 261.572 206.752 261.675 206.752 261.791C206.752 261.946 206.802 262.079 206.902 262.189C207.001 262.3 207.132 262.397 207.292 262.48C207.452 262.557 207.63 262.629 207.823 262.696C208.022 262.757 208.219 262.82 208.413 262.887C208.761 263.008 209.077 263.141 209.359 263.285C209.641 263.429 209.882 263.598 210.081 263.792C210.286 263.985 210.441 264.212 210.546 264.472C210.657 264.732 210.712 265.042 210.712 265.402C210.712 265.905 210.601 266.337 210.38 266.697C210.164 267.051 209.874 267.341 209.508 267.568C209.149 267.79 208.731 267.95 208.255 268.05C207.785 268.155 207.295 268.208 206.786 268.208C205.85 268.208 204.984 268.064 204.188 267.776ZM213.559 258.155C213.116 258.155 212.754 258.025 212.472 257.765C212.189 257.5 212.048 257.176 212.048 256.794C212.048 256.401 212.189 256.08 212.472 255.831C212.754 255.582 213.116 255.458 213.559 255.458C214.007 255.458 214.37 255.582 214.646 255.831C214.929 256.08 215.07 256.401 215.07 256.794C215.07 257.192 214.929 257.519 214.646 257.773C214.37 258.028 214.007 258.155 213.559 258.155ZM214.854 268H212.231V259.5H214.854V268ZM225.155 259.5L221.993 268H219.004L215.991 259.5H218.797L220.274 264.738C220.44 265.33 220.537 265.833 220.565 266.249H220.598C220.637 265.856 220.739 265.369 220.905 264.788L222.416 259.5H225.155ZM233.083 268H230.601V266.78H230.567C229.997 267.732 229.153 268.208 228.036 268.208C227.211 268.208 226.561 267.975 226.085 267.51C225.615 267.04 225.379 266.415 225.379 265.634C225.379 263.985 226.356 263.033 228.31 262.779L230.617 262.472C230.617 261.542 230.114 261.077 229.106 261.077C228.094 261.077 227.131 261.379 226.218 261.982V260.006C226.583 259.818 227.081 259.652 227.712 259.508C228.348 259.364 228.927 259.292 229.447 259.292C231.871 259.292 233.083 260.502 233.083 262.92V268ZM230.617 264.547V263.974L229.073 264.173C228.221 264.284 227.795 264.669 227.795 265.327C227.795 265.626 227.897 265.872 228.102 266.066C228.312 266.254 228.595 266.348 228.949 266.348C229.441 266.348 229.842 266.179 230.152 265.842C230.462 265.499 230.617 265.067 230.617 264.547ZM234.602 267.776V265.651C235.033 265.911 235.462 266.105 235.888 266.232C236.32 266.359 236.727 266.423 237.108 266.423C237.573 266.423 237.938 266.359 238.204 266.232C238.475 266.105 238.611 265.911 238.611 265.651C238.611 265.485 238.55 265.347 238.428 265.236C238.306 265.125 238.149 265.028 237.955 264.945C237.767 264.862 237.559 264.788 237.333 264.721C237.106 264.655 236.887 264.58 236.677 264.497C236.339 264.37 236.04 264.234 235.78 264.09C235.526 263.941 235.31 263.769 235.133 263.576C234.961 263.382 234.828 263.158 234.734 262.903C234.646 262.649 234.602 262.347 234.602 261.999C234.602 261.523 234.704 261.113 234.909 260.77C235.119 260.427 235.396 260.147 235.739 259.932C236.087 259.71 236.483 259.55 236.926 259.45C237.374 259.345 237.839 259.292 238.32 259.292C238.697 259.292 239.078 259.323 239.466 259.384C239.853 259.439 240.235 259.522 240.611 259.633V261.658C240.279 261.465 239.922 261.321 239.541 261.227C239.164 261.127 238.793 261.077 238.428 261.077C238.257 261.077 238.093 261.094 237.938 261.127C237.789 261.155 237.656 261.199 237.54 261.26C237.424 261.315 237.333 261.39 237.266 261.484C237.2 261.572 237.167 261.675 237.167 261.791C237.167 261.946 237.216 262.079 237.316 262.189C237.416 262.3 237.546 262.397 237.706 262.48C237.867 262.557 238.044 262.629 238.237 262.696C238.437 262.757 238.633 262.82 238.827 262.887C239.175 263.008 239.491 263.141 239.773 263.285C240.055 263.429 240.296 263.598 240.495 263.792C240.7 263.985 240.855 264.212 240.96 264.472C241.071 264.732 241.126 265.042 241.126 265.402C241.126 265.905 241.015 266.337 240.794 266.697C240.578 267.051 240.288 267.341 239.922 267.568C239.563 267.79 239.145 267.95 238.669 268.05C238.199 268.155 237.709 268.208 237.2 268.208C236.264 268.208 235.398 268.064 234.602 267.776ZM245.127 265.908L243.907 270.108H241.865L242.711 265.908H245.127ZM254.615 267.012H254.582V268H251.958V255.416H254.582V260.778H254.615C255.262 259.788 256.184 259.292 257.379 259.292C258.475 259.292 259.319 259.669 259.911 260.421C260.503 261.174 260.799 262.203 260.799 263.509C260.799 264.926 260.453 266.063 259.761 266.921C259.069 267.779 258.145 268.208 256.989 268.208C255.943 268.208 255.152 267.809 254.615 267.012ZM254.54 263.426V264.298C254.54 264.846 254.698 265.299 255.013 265.659C255.329 266.019 255.733 266.199 256.225 266.199C256.823 266.199 257.285 265.969 257.611 265.51C257.943 265.045 258.109 264.389 258.109 263.542C258.109 262.84 257.957 262.292 257.653 261.899C257.354 261.5 256.925 261.301 256.366 261.301C255.84 261.301 255.403 261.498 255.055 261.891C254.712 262.284 254.54 262.795 254.54 263.426ZM270.137 264.497H264.592C264.681 265.731 265.458 266.348 266.925 266.348C267.86 266.348 268.682 266.127 269.39 265.684V267.577C268.604 267.997 267.583 268.208 266.327 268.208C264.955 268.208 263.889 267.828 263.131 267.07C262.373 266.307 261.994 265.244 261.994 263.883C261.994 262.472 262.404 261.354 263.223 260.529C264.042 259.705 265.049 259.292 266.244 259.292C267.484 259.292 268.441 259.66 269.116 260.396C269.797 261.132 270.137 262.131 270.137 263.393V264.497ZM267.705 262.887C267.705 261.669 267.213 261.061 266.228 261.061C265.807 261.061 265.442 261.235 265.132 261.583C264.827 261.932 264.642 262.367 264.576 262.887H267.705ZM285.195 268H282.58V263.152C282.58 261.918 282.126 261.301 281.219 261.301C280.787 261.301 280.436 261.487 280.165 261.857C279.893 262.228 279.758 262.69 279.758 263.244V268H277.135V263.103C277.135 261.902 276.689 261.301 275.798 261.301C275.35 261.301 274.99 261.478 274.719 261.833C274.454 262.187 274.321 262.668 274.321 263.277V268H271.698V259.5H274.321V260.828H274.354C274.625 260.374 275.004 260.006 275.491 259.724C275.984 259.436 276.521 259.292 277.102 259.292C278.302 259.292 279.124 259.821 279.567 260.878C280.214 259.821 281.166 259.292 282.422 259.292C284.271 259.292 285.195 260.432 285.195 262.712V268ZM14.1909 291.208C12.7743 291.208 11.6592 290.812 10.8457 290.021C10.0378 289.224 9.63379 288.145 9.63379 286.783C9.63379 285.378 10.0544 284.279 10.8955 283.488C11.7367 282.691 12.8739 282.292 14.3071 282.292C15.7183 282.292 16.825 282.691 17.6274 283.488C18.4299 284.279 18.8311 285.328 18.8311 286.634C18.8311 288.045 18.416 289.16 17.5859 289.979C16.7614 290.798 15.6297 291.208 14.1909 291.208ZM14.2573 284.301C13.6375 284.301 13.1561 284.514 12.813 284.94C12.4699 285.367 12.2983 285.97 12.2983 286.75C12.2983 288.382 12.9569 289.199 14.2739 289.199C15.5301 289.199 16.1582 288.36 16.1582 286.684C16.1582 285.095 15.5246 284.301 14.2573 284.301ZM26.0776 284.866C25.7622 284.694 25.3942 284.608 24.9736 284.608C24.4036 284.608 23.9582 284.819 23.6372 285.239C23.3162 285.654 23.1558 286.222 23.1558 286.941V291H20.5327V282.5H23.1558V284.077H23.189C23.604 282.926 24.3511 282.351 25.4302 282.351C25.7069 282.351 25.9227 282.384 26.0776 282.45V284.866ZM35.5737 290.029C35.5737 291.606 35.1172 292.826 34.2041 293.689C33.291 294.558 31.9684 294.993 30.2363 294.993C29.0908 294.993 28.1833 294.829 27.5137 294.503V292.295C28.388 292.804 29.2707 293.059 30.1616 293.059C31.047 293.059 31.7332 292.823 32.2202 292.353C32.7072 291.888 32.9507 291.255 32.9507 290.452V289.78H32.9175C32.3198 290.732 31.4372 291.208 30.2695 291.208C29.1849 291.208 28.3244 290.826 27.688 290.062C27.0516 289.298 26.7334 288.275 26.7334 286.991C26.7334 285.552 27.0876 284.409 27.7959 283.562C28.5042 282.716 29.4367 282.292 30.5933 282.292C31.6281 282.292 32.4028 282.691 32.9175 283.488H32.9507V282.5H35.5737V290.029ZM32.9839 286.916V286.244C32.9839 285.707 32.8234 285.25 32.5024 284.874C32.187 284.492 31.7747 284.301 31.2656 284.301C30.6846 284.301 30.228 284.528 29.896 284.982C29.564 285.436 29.3979 286.075 29.3979 286.899C29.3979 287.608 29.5557 288.169 29.8711 288.584C30.1865 288.994 30.6182 289.199 31.166 289.199C31.7083 289.199 32.1455 288.991 32.4775 288.576C32.8151 288.156 32.9839 287.602 32.9839 286.916ZM44.8374 291H42.3555V289.78H42.3223C41.7523 290.732 40.9084 291.208 39.7905 291.208C38.966 291.208 38.3158 290.975 37.8398 290.51C37.3695 290.04 37.1343 289.415 37.1343 288.634C37.1343 286.985 38.111 286.033 40.0645 285.779L42.3721 285.472C42.3721 284.542 41.8685 284.077 40.8613 284.077C39.8486 284.077 38.8857 284.379 37.9727 284.982V283.006C38.3379 282.818 38.8359 282.652 39.4668 282.508C40.1032 282.364 40.6815 282.292 41.2017 282.292C43.6255 282.292 44.8374 283.502 44.8374 285.92V291ZM42.3721 287.547V286.974L40.8281 287.173C39.9759 287.284 39.5498 287.669 39.5498 288.327C39.5498 288.626 39.6522 288.872 39.8569 289.066C40.0672 289.254 40.3494 289.348 40.7036 289.348C41.1961 289.348 41.5973 289.179 41.9072 288.842C42.2171 288.499 42.3721 288.067 42.3721 287.547ZM55.1221 291H52.5073V286.277C52.5073 284.96 52.0369 284.301 51.0962 284.301C50.6424 284.301 50.2689 284.476 49.9756 284.824C49.6823 285.173 49.5356 285.616 49.5356 286.152V291H46.9126V282.5H49.5356V283.845H49.5688C50.1942 282.81 51.1045 282.292 52.2998 282.292C54.1813 282.292 55.1221 283.46 55.1221 285.795V291ZM58.5337 281.155C58.091 281.155 57.7285 281.025 57.4463 280.765C57.1641 280.5 57.0229 280.176 57.0229 279.794C57.0229 279.401 57.1641 279.08 57.4463 278.831C57.7285 278.582 58.091 278.458 58.5337 278.458C58.9819 278.458 59.3444 278.582 59.6211 278.831C59.9033 279.08 60.0444 279.401 60.0444 279.794C60.0444 280.192 59.9033 280.519 59.6211 280.773C59.3444 281.028 58.9819 281.155 58.5337 281.155ZM59.8286 291H57.2056V282.5H59.8286V291ZM68.7686 291H61.1401V289.913L65.4067 284.434H61.5635V282.5H68.7354V283.795L64.6929 289.066H68.7686V291ZM77.2603 291H74.7783V289.78H74.7451C74.1751 290.732 73.3312 291.208 72.2134 291.208C71.3888 291.208 70.7386 290.975 70.2627 290.51C69.7923 290.04 69.5571 289.415 69.5571 288.634C69.5571 286.985 70.5339 286.033 72.4873 285.779L74.7949 285.472C74.7949 284.542 74.2913 284.077 73.2842 284.077C72.2715 284.077 71.3086 284.379 70.3955 284.982V283.006C70.7607 282.818 71.2588 282.652 71.8896 282.508C72.526 282.364 73.1043 282.292 73.6245 282.292C76.0483 282.292 77.2603 283.502 77.2603 285.92V291ZM74.7949 287.547V286.974L73.251 287.173C72.3988 287.284 71.9727 287.669 71.9727 288.327C71.9727 288.626 72.075 288.872 72.2798 289.066C72.4901 289.254 72.7723 289.348 73.1265 289.348C73.619 289.348 74.0202 289.179 74.3301 288.842C74.64 288.499 74.7949 288.067 74.7949 287.547ZM87.6528 291H85.0298V289.83H84.9966C84.3989 290.748 83.5218 291.208 82.3652 291.208C81.3027 291.208 80.4478 290.834 79.8003 290.087C79.1528 289.334 78.8291 288.286 78.8291 286.941C78.8291 285.535 79.186 284.409 79.8999 283.562C80.6138 282.716 81.549 282.292 82.7056 282.292C83.8013 282.292 84.5649 282.685 84.9966 283.471H85.0298V278.416H87.6528V291ZM85.0796 286.866V286.227C85.0796 285.674 84.9191 285.214 84.5981 284.849C84.2772 284.484 83.8594 284.301 83.3447 284.301C82.7637 284.301 82.3099 284.531 81.9834 284.99C81.6569 285.444 81.4937 286.069 81.4937 286.866C81.4937 287.613 81.6514 288.189 81.9668 288.593C82.2822 288.997 82.7194 289.199 83.2783 289.199C83.8096 289.199 84.2412 288.986 84.5732 288.56C84.9108 288.133 85.0796 287.569 85.0796 286.866ZM96.9331 291H94.4512V289.78H94.418C93.848 290.732 93.0041 291.208 91.8862 291.208C91.0617 291.208 90.4115 290.975 89.9355 290.51C89.4652 290.04 89.23 289.415 89.23 288.634C89.23 286.985 90.2067 286.033 92.1602 285.779L94.4678 285.472C94.4678 284.542 93.9642 284.077 92.957 284.077C91.9443 284.077 90.9814 284.379 90.0684 284.982V283.006C90.4336 282.818 90.9316 282.652 91.5625 282.508C92.1989 282.364 92.7772 282.292 93.2974 282.292C95.7212 282.292 96.9331 283.502 96.9331 285.92V291ZM94.4678 287.547V286.974L92.9238 287.173C92.0716 287.284 91.6455 287.669 91.6455 288.327C91.6455 288.626 91.7479 288.872 91.9526 289.066C92.1629 289.254 92.4451 289.348 92.7993 289.348C93.2918 289.348 93.693 289.179 94.0029 288.842C94.3128 288.499 94.4678 288.067 94.4678 287.547ZM98.4521 290.776V288.651C98.8838 288.911 99.3127 289.105 99.7388 289.232C100.17 289.359 100.577 289.423 100.959 289.423C101.424 289.423 101.789 289.359 102.055 289.232C102.326 289.105 102.461 288.911 102.461 288.651C102.461 288.485 102.401 288.347 102.279 288.236C102.157 288.125 101.999 288.028 101.806 287.945C101.618 287.862 101.41 287.788 101.183 287.721C100.956 287.655 100.738 287.58 100.527 287.497C100.19 287.37 99.891 287.234 99.6309 287.09C99.3763 286.941 99.1605 286.769 98.9834 286.576C98.8118 286.382 98.679 286.158 98.585 285.903C98.4964 285.649 98.4521 285.347 98.4521 284.999C98.4521 284.523 98.5545 284.113 98.7593 283.77C98.9696 283.427 99.2463 283.147 99.5894 282.932C99.938 282.71 100.334 282.55 100.776 282.45C101.225 282.345 101.689 282.292 102.171 282.292C102.547 282.292 102.929 282.323 103.316 282.384C103.704 282.439 104.086 282.522 104.462 282.633V284.658C104.13 284.465 103.773 284.321 103.391 284.227C103.015 284.127 102.644 284.077 102.279 284.077C102.107 284.077 101.944 284.094 101.789 284.127C101.64 284.155 101.507 284.199 101.391 284.26C101.274 284.315 101.183 284.39 101.117 284.484C101.05 284.572 101.017 284.675 101.017 284.791C101.017 284.946 101.067 285.079 101.167 285.189C101.266 285.3 101.396 285.397 101.557 285.48C101.717 285.557 101.894 285.629 102.088 285.696C102.287 285.757 102.484 285.82 102.677 285.887C103.026 286.008 103.341 286.141 103.624 286.285C103.906 286.429 104.146 286.598 104.346 286.792C104.55 286.985 104.705 287.212 104.811 287.472C104.921 287.732 104.977 288.042 104.977 288.402C104.977 288.905 104.866 289.337 104.645 289.697C104.429 290.051 104.138 290.341 103.773 290.568C103.413 290.79 102.995 290.95 102.52 291.05C102.049 291.155 101.559 291.208 101.05 291.208C100.115 291.208 99.249 291.064 98.4521 290.776ZM118.831 287.497H113.286C113.374 288.731 114.152 289.348 115.618 289.348C116.553 289.348 117.375 289.127 118.083 288.684V290.577C117.298 290.997 116.277 291.208 115.021 291.208C113.648 291.208 112.583 290.828 111.825 290.07C111.067 289.307 110.688 288.244 110.688 286.883C110.688 285.472 111.097 284.354 111.916 283.529C112.735 282.705 113.742 282.292 114.938 282.292C116.177 282.292 117.134 282.66 117.81 283.396C118.49 284.132 118.831 285.131 118.831 286.393V287.497ZM116.398 285.887C116.398 284.669 115.906 284.061 114.921 284.061C114.5 284.061 114.135 284.235 113.825 284.583C113.521 284.932 113.335 285.367 113.269 285.887H116.398ZM129.14 291.208C127.723 291.208 126.608 290.812 125.795 290.021C124.987 289.224 124.583 288.145 124.583 286.783C124.583 285.378 125.004 284.279 125.845 283.488C126.686 282.691 127.823 282.292 129.256 282.292C130.667 282.292 131.774 282.691 132.577 283.488C133.379 284.279 133.78 285.328 133.78 286.634C133.78 288.045 133.365 289.16 132.535 289.979C131.711 290.798 130.579 291.208 129.14 291.208ZM129.207 284.301C128.587 284.301 128.105 284.514 127.762 284.94C127.419 285.367 127.248 285.97 127.248 286.75C127.248 288.382 127.906 289.199 129.223 289.199C130.479 289.199 131.107 288.36 131.107 286.684C131.107 285.095 130.474 284.301 129.207 284.301ZM140.62 290.9C140.233 291.105 139.649 291.208 138.869 291.208C137.02 291.208 136.096 290.247 136.096 288.327V284.434H134.718V282.5H136.096V280.666L138.711 279.918V282.5H140.62V284.434H138.711V287.871C138.711 288.756 139.062 289.199 139.765 289.199C140.042 289.199 140.327 289.118 140.62 288.958V290.9ZM143.434 281.155C142.991 281.155 142.629 281.025 142.347 280.765C142.064 280.5 141.923 280.176 141.923 279.794C141.923 279.401 142.064 279.08 142.347 278.831C142.629 278.582 142.991 278.458 143.434 278.458C143.882 278.458 144.245 278.582 144.521 278.831C144.804 279.08 144.945 279.401 144.945 279.794C144.945 280.192 144.804 280.519 144.521 280.773C144.245 281.028 143.882 281.155 143.434 281.155ZM144.729 291H142.106V282.5H144.729V291ZM160.434 291H157.819V286.152C157.819 284.918 157.366 284.301 156.458 284.301C156.026 284.301 155.675 284.487 155.404 284.857C155.133 285.228 154.997 285.69 154.997 286.244V291H152.374V286.103C152.374 284.902 151.929 284.301 151.038 284.301C150.589 284.301 150.23 284.478 149.958 284.833C149.693 285.187 149.56 285.668 149.56 286.277V291H146.937V282.5H149.56V283.828H149.593C149.864 283.374 150.243 283.006 150.73 282.724C151.223 282.436 151.76 282.292 152.341 282.292C153.542 282.292 154.363 282.821 154.806 283.878C155.454 282.821 156.405 282.292 157.662 282.292C159.51 282.292 160.434 283.432 160.434 285.712V291ZM163.837 281.155C163.395 281.155 163.032 281.025 162.75 280.765C162.468 280.5 162.327 280.176 162.327 279.794C162.327 279.401 162.468 279.08 162.75 278.831C163.032 278.582 163.395 278.458 163.837 278.458C164.286 278.458 164.648 278.582 164.925 278.831C165.207 279.08 165.348 279.401 165.348 279.794C165.348 280.192 165.207 280.519 164.925 280.773C164.648 281.028 164.286 281.155 163.837 281.155ZM165.132 291H162.509V282.5H165.132V291ZM174.072 291H166.444V289.913L170.71 284.434H166.867V282.5H174.039V283.795L169.997 289.066H174.072V291ZM182.564 291H180.082V289.78H180.049C179.479 290.732 178.635 291.208 177.517 291.208C176.693 291.208 176.042 290.975 175.566 290.51C175.096 290.04 174.861 289.415 174.861 288.634C174.861 286.985 175.838 286.033 177.791 285.779L180.099 285.472C180.099 284.542 179.595 284.077 178.588 284.077C177.575 284.077 176.612 284.379 175.699 284.982V283.006C176.064 282.818 176.562 282.652 177.193 282.508C177.83 282.364 178.408 282.292 178.928 282.292C181.352 282.292 182.564 283.502 182.564 285.92V291ZM180.099 287.547V286.974L178.555 287.173C177.702 287.284 177.276 287.669 177.276 288.327C177.276 288.626 177.379 288.872 177.583 289.066C177.794 289.254 178.076 289.348 178.43 289.348C178.923 289.348 179.324 289.179 179.634 288.842C179.944 288.499 180.099 288.067 180.099 287.547ZM192.957 291H190.333V289.83H190.3C189.703 290.748 188.826 291.208 187.669 291.208C186.606 291.208 185.751 290.834 185.104 290.087C184.457 289.334 184.133 288.286 184.133 286.941C184.133 285.535 184.49 284.409 185.204 283.562C185.917 282.716 186.853 282.292 188.009 282.292C189.105 282.292 189.869 282.685 190.3 283.471H190.333V278.416H192.957V291ZM190.383 286.866V286.227C190.383 285.674 190.223 285.214 189.902 284.849C189.581 284.484 189.163 284.301 188.648 284.301C188.067 284.301 187.614 284.531 187.287 284.99C186.961 285.444 186.797 286.069 186.797 286.866C186.797 287.613 186.955 288.189 187.271 288.593C187.586 288.997 188.023 289.199 188.582 289.199C189.113 289.199 189.545 288.986 189.877 288.56C190.215 288.133 190.383 287.569 190.383 286.866ZM202.237 291H199.755V289.78H199.722C199.152 290.732 198.308 291.208 197.19 291.208C196.365 291.208 195.715 290.975 195.239 290.51C194.769 290.04 194.534 289.415 194.534 288.634C194.534 286.985 195.51 286.033 197.464 285.779L199.771 285.472C199.771 284.542 199.268 284.077 198.261 284.077C197.248 284.077 196.285 284.379 195.372 284.982V283.006C195.737 282.818 196.235 282.652 196.866 282.508C197.503 282.364 198.081 282.292 198.601 282.292C201.025 282.292 202.237 283.502 202.237 285.92V291ZM199.771 287.547V286.974L198.228 287.173C197.375 287.284 196.949 287.669 196.949 288.327C196.949 288.626 197.052 288.872 197.256 289.066C197.467 289.254 197.749 289.348 198.103 289.348C198.596 289.348 198.997 289.179 199.307 288.842C199.617 288.499 199.771 288.067 199.771 287.547ZM203.756 290.776V288.651C204.188 288.911 204.616 289.105 205.042 289.232C205.474 289.359 205.881 289.423 206.263 289.423C206.728 289.423 207.093 289.359 207.358 289.232C207.63 289.105 207.765 288.911 207.765 288.651C207.765 288.485 207.704 288.347 207.583 288.236C207.461 288.125 207.303 288.028 207.109 287.945C206.921 287.862 206.714 287.788 206.487 287.721C206.26 287.655 206.041 287.58 205.831 287.497C205.493 287.37 205.195 287.234 204.935 287.09C204.68 286.941 204.464 286.769 204.287 286.576C204.116 286.382 203.983 286.158 203.889 285.903C203.8 285.649 203.756 285.347 203.756 284.999C203.756 284.523 203.858 284.113 204.063 283.77C204.273 283.427 204.55 283.147 204.893 282.932C205.242 282.71 205.637 282.55 206.08 282.45C206.528 282.345 206.993 282.292 207.475 282.292C207.851 282.292 208.233 282.323 208.62 282.384C209.007 282.439 209.389 282.522 209.766 282.633V284.658C209.434 284.465 209.077 284.321 208.695 284.227C208.319 284.127 207.948 284.077 207.583 284.077C207.411 284.077 207.248 284.094 207.093 284.127C206.943 284.155 206.811 284.199 206.694 284.26C206.578 284.315 206.487 284.39 206.42 284.484C206.354 284.572 206.321 284.675 206.321 284.791C206.321 284.946 206.371 285.079 206.47 285.189C206.57 285.3 206.7 285.397 206.86 285.48C207.021 285.557 207.198 285.629 207.392 285.696C207.591 285.757 207.787 285.82 207.981 285.887C208.33 286.008 208.645 286.141 208.927 286.285C209.209 286.429 209.45 286.598 209.649 286.792C209.854 286.985 210.009 287.212 210.114 287.472C210.225 287.732 210.28 288.042 210.28 288.402C210.28 288.905 210.17 289.337 209.948 289.697C209.732 290.051 209.442 290.341 209.077 290.568C208.717 290.79 208.299 290.95 207.823 291.05C207.353 291.155 206.863 291.208 206.354 291.208C205.419 291.208 204.553 291.064 203.756 290.776ZM219.154 290.012H219.121V294.91H216.498V282.5H219.121V283.778H219.154C219.801 282.788 220.712 282.292 221.885 282.292C222.986 282.292 223.835 282.672 224.433 283.43C225.036 284.182 225.338 285.209 225.338 286.509C225.338 287.926 224.986 289.063 224.284 289.921C223.586 290.779 222.657 291.208 221.495 291.208C220.471 291.208 219.691 290.809 219.154 290.012ZM219.079 286.526V287.207C219.079 287.793 219.234 288.272 219.544 288.643C219.854 289.013 220.261 289.199 220.764 289.199C221.362 289.199 221.824 288.969 222.15 288.51C222.482 288.045 222.648 287.389 222.648 286.542C222.648 285.048 222.067 284.301 220.905 284.301C220.368 284.301 219.929 284.506 219.585 284.916C219.248 285.319 219.079 285.856 219.079 286.526ZM233.946 291H231.464V289.78H231.431C230.861 290.732 230.017 291.208 228.899 291.208C228.074 291.208 227.424 290.975 226.948 290.51C226.478 290.04 226.243 289.415 226.243 288.634C226.243 286.985 227.219 286.033 229.173 285.779L231.48 285.472C231.48 284.542 230.977 284.077 229.97 284.077C228.957 284.077 227.994 284.379 227.081 284.982V283.006C227.446 282.818 227.944 282.652 228.575 282.508C229.212 282.364 229.79 282.292 230.31 282.292C232.734 282.292 233.946 283.502 233.946 285.92V291ZM231.48 287.547V286.974L229.937 287.173C229.084 287.284 228.658 287.669 228.658 288.327C228.658 288.626 228.761 288.872 228.965 289.066C229.176 289.254 229.458 289.348 229.812 289.348C230.305 289.348 230.706 289.179 231.016 288.842C231.326 288.499 231.48 288.067 231.48 287.547ZM241.566 284.866C241.25 284.694 240.882 284.608 240.462 284.608C239.892 284.608 239.446 284.819 239.125 285.239C238.805 285.654 238.644 286.222 238.644 286.941V291H236.021V282.5H238.644V284.077H238.677C239.092 282.926 239.839 282.351 240.918 282.351C241.195 282.351 241.411 282.384 241.566 282.45V284.866ZM249.867 291H247.385V289.78H247.352C246.782 290.732 245.938 291.208 244.82 291.208C243.995 291.208 243.345 290.975 242.869 290.51C242.399 290.04 242.164 289.415 242.164 288.634C242.164 286.985 243.14 286.033 245.094 285.779L247.401 285.472C247.401 284.542 246.898 284.077 245.891 284.077C244.878 284.077 243.915 284.379 243.002 284.982V283.006C243.367 282.818 243.865 282.652 244.496 282.508C245.132 282.364 245.711 282.292 246.231 282.292C248.655 282.292 249.867 283.502 249.867 285.92V291ZM247.401 287.547V286.974L245.857 287.173C245.005 287.284 244.579 287.669 244.579 288.327C244.579 288.626 244.681 288.872 244.886 289.066C245.097 289.254 245.379 289.348 245.733 289.348C246.225 289.348 246.627 289.179 246.937 288.842C247.246 288.499 247.401 288.067 247.401 287.547ZM256.35 290.543V287.887C256.831 288.291 257.354 288.596 257.918 288.8C258.483 289 259.053 289.099 259.628 289.099C259.966 289.099 260.259 289.069 260.508 289.008C260.763 288.947 260.973 288.864 261.139 288.759C261.311 288.648 261.438 288.521 261.521 288.377C261.604 288.228 261.646 288.067 261.646 287.896C261.646 287.663 261.579 287.456 261.446 287.273C261.313 287.09 261.131 286.922 260.898 286.767C260.672 286.612 260.4 286.462 260.085 286.318C259.77 286.174 259.429 286.028 259.064 285.878C258.134 285.491 257.44 285.018 256.98 284.459C256.527 283.9 256.3 283.225 256.3 282.434C256.3 281.814 256.424 281.283 256.673 280.84C256.922 280.392 257.26 280.024 257.686 279.736C258.118 279.448 258.616 279.238 259.18 279.105C259.745 278.967 260.342 278.897 260.973 278.897C261.593 278.897 262.141 278.936 262.617 279.014C263.098 279.086 263.541 279.199 263.945 279.354V281.836C263.746 281.698 263.527 281.576 263.289 281.471C263.057 281.366 262.816 281.28 262.567 281.213C262.318 281.141 262.069 281.089 261.82 281.056C261.576 281.022 261.344 281.006 261.123 281.006C260.818 281.006 260.542 281.036 260.292 281.097C260.043 281.153 259.833 281.233 259.662 281.338C259.49 281.443 259.357 281.57 259.263 281.72C259.169 281.864 259.122 282.027 259.122 282.209C259.122 282.409 259.175 282.589 259.28 282.749C259.385 282.904 259.534 283.053 259.728 283.197C259.922 283.336 260.157 283.474 260.434 283.612C260.71 283.745 261.023 283.883 261.372 284.027C261.847 284.227 262.274 284.44 262.65 284.667C263.032 284.888 263.358 285.14 263.629 285.422C263.901 285.704 264.108 286.028 264.252 286.393C264.396 286.753 264.468 287.173 264.468 287.655C264.468 288.319 264.34 288.878 264.086 289.332C263.837 289.78 263.497 290.145 263.065 290.427C262.633 290.704 262.13 290.903 261.554 291.025C260.984 291.147 260.381 291.208 259.745 291.208C259.092 291.208 258.469 291.152 257.877 291.042C257.29 290.931 256.781 290.765 256.35 290.543ZM273.565 291H266.427V279.097H273.292V281.28H269.108V283.928H273.001V286.103H269.108V288.825H273.565V291ZM280.505 291.208C278.8 291.208 277.411 290.654 276.338 289.547C275.264 288.435 274.728 286.988 274.728 285.206C274.728 283.325 275.273 281.803 276.363 280.641C277.453 279.479 278.897 278.897 280.696 278.897C282.395 278.897 283.767 279.454 284.813 280.566C285.864 281.678 286.39 283.145 286.39 284.965C286.39 286.836 285.845 288.344 284.755 289.489C283.67 290.635 282.254 291.208 280.505 291.208ZM280.621 281.205C279.68 281.205 278.933 281.559 278.38 282.268C277.826 282.97 277.55 283.903 277.55 285.065C277.55 286.244 277.826 287.176 278.38 287.862C278.933 288.549 279.658 288.892 280.555 288.892C281.479 288.892 282.212 288.56 282.754 287.896C283.297 287.226 283.568 286.299 283.568 285.115C283.568 283.881 283.305 282.921 282.779 282.234C282.254 281.548 281.534 281.205 280.621 281.205ZM288.623 291.208C288.191 291.208 287.832 291.075 287.544 290.809C287.256 290.543 287.112 290.217 287.112 289.83C287.112 289.431 287.259 289.105 287.552 288.85C287.851 288.596 288.222 288.468 288.665 288.468C289.113 288.468 289.478 288.598 289.76 288.858C290.048 289.113 290.192 289.437 290.192 289.83C290.192 290.234 290.045 290.566 289.752 290.826C289.464 291.08 289.088 291.208 288.623 291.208Z" fill="#C1C1C1"/>
<defs>
<clipPath id="clip0">
<rect width="216" height="158.824" fill="white" transform="translate(42)"/>
</clipPath>
</defs>
</svg>
